<svg xmlns="http://www.w3.org/2000/svg" xmlns:xlink="http://www.w3.org/1999/xlink" width="612.4" height="32.533" viewBox="0 0 612.4 32.533">
  <defs>
    <clipPath id="clip-path">
      <rect id="Rectangle_43" data-name="Rectangle 43" width="612.4" height="32.533" transform="translate(0 0)" fill="none"/>
    </clipPath>
  </defs>
  <g id="Group_18" data-name="Group 18" transform="translate(0 0)">
    <rect id="Rectangle_27" data-name="Rectangle 27" width="612.4" height="32.533" transform="translate(0 0)" fill="#11436f"/>
    <path id="Path_128" data-name="Path 128" d="M0,2.8V29.733H470.056L477.742,2.8Z" fill="#fff"/>
    <path id="Path_129" data-name="Path 129" d="M483,2.41l-8.6,30.123H612.4V2.41Z" fill="#d12027"/>
    <g id="Group_17" data-name="Group 17" clip-path="url(#clip-path)">
      <path id="Path_130" data-name="Path 130" d="M489,19.783h2.068l1.159-4.616,1.119,4.616h2.068l1.828-7.013h-1.838l-1.019,5.1-1.2-5.1h-1.878l-1.249,5.1-1.009-5.1h-1.828Zm10.51,0h2.068l1.158-4.616,1.119,4.616h2.069l1.828-7.013h-1.838l-1.02,5.1-1.2-5.1H501.82l-1.248,5.1-1.009-5.1h-1.829Zm10.509,0h2.068l1.159-4.616,1.119,4.616h2.068l1.828-7.013h-1.838l-1.019,5.1-1.2-5.1H512.33l-1.249,5.1-1.009-5.1h-1.828Zm10.909-.839a1.019,1.019,0,1,0-1.009.919.943.943,0,0,0,1.009-.919m5.075.839h2.088l-2.817-3.576,2.717-3.437h-2.008l-2.337,3.077V12.77H521.94v7.013h1.709v-3.1Zm2.868-2.827a2.689,2.689,0,0,0,2.9,2.9,2.755,2.755,0,0,0,2.977-2.9V12.77h-1.709v4.2a1.151,1.151,0,0,1-1.238,1.308c-.809,0-1.219-.479-1.219-1.308v-4.2h-1.708Zm11.638-4.186v4.346l-2.857-4.346h-1.708v7.013h1.708V15.457l2.857,4.326h1.708V12.77Zm5.974,5.3-1.738-5.3H542.93l2.487,7.013h2.138l2.487-7.013h-1.808Zm9.051,1.718h1.808l-2.538-7.013H552.83l-2.538,7.013h1.788l.42-1.239h2.617Zm-.859-2.557h-1.729l.859-2.568Zm7.143-2.178c0,.549-.3.879-.939.879h-1.06V14.189h1.06c.639,0,.939.339.939.859m-3.707-2.278v7.013h1.708V17.136h.41l1.459,2.647h1.928L562,17.006a2.042,2.042,0,0,0,1.559-2.028c0-1.219-.859-2.208-2.577-2.208Zm9.2,4.775c0,.52-.239.779-.649.779-.44,0-.7-.289-.7-.889h-1.7a2.249,2.249,0,0,0,2.448,2.418,2.117,2.117,0,0,0,2.308-2.308V12.77h-1.709Zm3.087,2.238h1.708V12.77H570.4Zm4.755-.839a1.019,1.019,0,1,0-1.008.919.943.943,0,0,0,1.008-.919m.72-2.678a3.4,3.4,0,0,0,3.526,3.567,3.248,3.248,0,0,0,3.327-2.448h-1.878a1.545,1.545,0,0,1-1.469.9,1.791,1.791,0,0,1-1.768-2.018,1.792,1.792,0,0,1,1.768-2.018,1.547,1.547,0,0,1,1.469.9h1.878A3.256,3.256,0,0,0,579.4,12.69a3.406,3.406,0,0,0-3.526,3.576m14.8-.01a3.6,3.6,0,1,0-3.587,3.6,3.512,3.512,0,0,0,3.587-3.6m-5.445,0a1.861,1.861,0,1,1,3.706,0,1.861,1.861,0,1,1-3.706,0m6.394,3.527h1.708V15.567l1.579,4.216H596.3l1.569-4.206v4.206h1.708V12.77h-2.008l-1.948,4.855-1.968-4.855h-2.018Z" fill="#fff" fill-rule="evenodd"/>
      <rect id="Rectangle_28" data-name="Rectangle 28" width="2.332" height="22.427" transform="translate(78.344 5.053)" fill="#d12027"/>
      <rect id="Rectangle_29" data-name="Rectangle 29" width="2.332" height="22.427" transform="translate(166.811 5.053)" fill="#d12027"/>
      <rect id="Rectangle_30" data-name="Rectangle 30" width="2.332" height="22.427" transform="translate(245.359 5.053)" fill="#d12027"/>
      <rect id="Rectangle_31" data-name="Rectangle 31" width="2.332" height="22.427" transform="translate(323.146 5.053)" fill="#d12027"/>
      <rect id="Rectangle_32" data-name="Rectangle 32" width="2.332" height="22.427" transform="translate(395.623 5.053)" fill="#d12027"/>
      <path id="Path_131" data-name="Path 131" d="M181.356,14.821,179.915,12.2h-.4v2.616h-1.688V7.892h2.833a3.118,3.118,0,0,1,1.4.286,1.974,1.974,0,0,1,.863.785,2.186,2.186,0,0,1,.287,1.11,2.069,2.069,0,0,1-.39,1.234,2.1,2.1,0,0,1-1.15.77l1.6,2.744Zm-1.846-3.81h1.046a.956.956,0,0,0,.7-.227.855.855,0,0,0,.232-.642.827.827,0,0,0-.232-.621.956.956,0,0,0-.7-.227H179.51Z" fill="#0f3051"/>
      <path id="Path_132" data-name="Path 132" d="M185.946,9.245v1.4h2.26v1.3h-2.26v1.52H188.5v1.352h-4.244V7.893H188.5V9.245Z" fill="#0f3051"/>
      <path id="Path_133" data-name="Path 133" d="M193.911,13.6h-2.586l-.414,1.224h-1.767l2.507-6.929H193.6l2.507,6.929h-1.786Zm-.434-1.3-.859-2.537-.849,2.537Z" fill="#0f3051"/>
      <path id="Path_134" data-name="Path 134" d="M198.56,13.519h2.211v1.3h-3.9V7.893h1.688Z" fill="#0f3051"/>
      <path id="Path_135" data-name="Path 135" d="M205.361,9.245v1.4h2.26v1.3h-2.26v1.52h2.556v1.352h-4.244V7.893h4.244V9.245Z" fill="#0f3051"/>
      <path id="Path_136" data-name="Path 136" d="M210.158,14.644a2.211,2.211,0,0,1-.963-.731,1.985,1.985,0,0,1-.38-1.164h1.8a.866.866,0,0,0,.267.587.854.854,0,0,0,.592.2.932.932,0,0,0,.593-.173.579.579,0,0,0,.216-.479.567.567,0,0,0-.173-.424,1.385,1.385,0,0,0-.424-.277,7.092,7.092,0,0,0-.716-.247,7.86,7.86,0,0,1-1.1-.414,2.03,2.03,0,0,1-.731-.612,1.706,1.706,0,0,1-.306-1.056,1.816,1.816,0,0,1,.7-1.515,2.881,2.881,0,0,1,1.826-.548,2.915,2.915,0,0,1,1.846.548,1.961,1.961,0,0,1,.75,1.525h-1.825a.715.715,0,0,0-.248-.528.864.864,0,0,0-.582-.193.725.725,0,0,0-.494.163.588.588,0,0,0-.187.469.579.579,0,0,0,.317.523,5.117,5.117,0,0,0,.986.405,9.168,9.168,0,0,1,1.091.434,2.081,2.081,0,0,1,.725.6,1.611,1.611,0,0,1,.306,1.017,1.994,1.994,0,0,1-.3,1.076,2.114,2.114,0,0,1-.874.77,3,3,0,0,1-1.351.286,3.563,3.563,0,0,1-1.362-.247" fill="#0f3051"/>
      <path id="Path_137" data-name="Path 137" d="M220.067,7.892V9.244h-1.836v5.577h-1.688V9.244h-1.836V7.892Z" fill="#0f3051"/>
      <path id="Path_138" data-name="Path 138" d="M225.229,13.6h-2.586l-.414,1.224h-1.767l2.507-6.929h1.954l2.507,6.929h-1.786Zm-.434-1.3-.859-2.537-.849,2.537Z" fill="#0f3051"/>
      <path id="Path_139" data-name="Path 139" d="M233.175,7.892V9.244h-1.836v5.577h-1.688V9.244h-1.836V7.892Z" fill="#0f3051"/>
      <path id="Path_140" data-name="Path 140" d="M235.712,9.245v1.4h2.26v1.3h-2.26v1.52h2.556v1.352h-4.244V7.893h4.244V9.245Z" fill="#0f3051"/>
      <path id="Path_141" data-name="Path 141" d="M182.136,24.181H179.55l-.414,1.224h-1.767l2.507-6.929h1.954l2.507,6.929h-1.786Zm-.434-1.3-.859-2.537-.849,2.537Z" fill="#0f3051"/>
      <path id="Path_142" data-name="Path 142" d="M189.608,18.909a3.1,3.1,0,0,1,1.268,1.219,3.869,3.869,0,0,1,0,3.618A3.086,3.086,0,0,1,189.6,24.97a4.043,4.043,0,0,1-1.91.434h-2.6V18.475h2.6a4.035,4.035,0,0,1,1.915.434m-.533,4.511a1.982,1.982,0,0,0,.533-1.48,1.85,1.85,0,0,0-2.023-2.024h-.8v4.027h.8a2.035,2.035,0,0,0,1.49-.523" fill="#0f3051"/>
      <path id="Path_143" data-name="Path 143" d="M198.777,18.475,196.319,25.4h-2.112l-2.458-6.929h1.8l1.717,5.231,1.727-5.231Z" fill="#0f3051"/>
      <rect id="Rectangle_33" data-name="Rectangle 33" width="1.688" height="6.929" transform="translate(199.478 18.475)" fill="#0f3051"/>
      <path id="Path_144" data-name="Path 144" d="M203.535,25.227a2.213,2.213,0,0,1-.962-.731,1.986,1.986,0,0,1-.38-1.164h1.8a.866.866,0,0,0,.267.587.854.854,0,0,0,.592.2.927.927,0,0,0,.592-.173.577.577,0,0,0,.217-.479.567.567,0,0,0-.173-.424,1.4,1.4,0,0,0-.424-.277,7.091,7.091,0,0,0-.716-.247,7.812,7.812,0,0,1-1.1-.414,2.022,2.022,0,0,1-.731-.612,1.706,1.706,0,0,1-.306-1.056,1.816,1.816,0,0,1,.7-1.515,2.881,2.881,0,0,1,1.826-.548,2.915,2.915,0,0,1,1.846.548,1.961,1.961,0,0,1,.75,1.525h-1.826a.71.71,0,0,0-.247-.528.864.864,0,0,0-.582-.193.721.721,0,0,0-.493.163.626.626,0,0,0,.128.992,5.159,5.159,0,0,0,.987.4,9.17,9.17,0,0,1,1.091.434,2.081,2.081,0,0,1,.725.6,1.611,1.611,0,0,1,.306,1.017,1.994,1.994,0,0,1-.3,1.076,2.114,2.114,0,0,1-.874.77,3,3,0,0,1-1.352.286,3.571,3.571,0,0,1-1.362-.247" fill="#0f3051"/>
      <path id="Path_145" data-name="Path 145" d="M209.946,25.019a3.385,3.385,0,0,1-1.293-1.268,3.729,3.729,0,0,1,0-3.657,3.4,3.4,0,0,1,1.293-1.263,3.762,3.762,0,0,1,3.583,0,3.333,3.333,0,0,1,1.283,1.263,3.781,3.781,0,0,1,0,3.657,3.367,3.367,0,0,1-1.283,1.268,3.745,3.745,0,0,1-3.578,0m3.119-1.638a2.4,2.4,0,0,0,0-2.927,1.708,1.708,0,0,0-1.328-.547,1.726,1.726,0,0,0-1.337.543,2.409,2.409,0,0,0,0,2.936,1.72,1.72,0,0,0,1.337.548,1.7,1.7,0,0,0,1.328-.553" fill="#0f3051"/>
      <path id="Path_146" data-name="Path 146" d="M219.752,25.4l-1.441-2.616h-.4V25.4h-1.688V18.475h2.833a3.118,3.118,0,0,1,1.4.286,1.974,1.974,0,0,1,.863.785,2.186,2.186,0,0,1,.287,1.11,2.062,2.062,0,0,1-.39,1.234,2.1,2.1,0,0,1-1.15.77l1.6,2.744Zm-1.846-3.81h1.046a.956.956,0,0,0,.7-.227.855.855,0,0,0,.232-.642.827.827,0,0,0-.232-.621.956.956,0,0,0-.7-.227h-1.046Z" fill="#0f3051"/>
      <path id="Path_147" data-name="Path 147" d="M228.6,18.475l-2.4,4.639V25.4H224.51v-2.29l-2.4-4.639h1.915l1.342,2.9,1.333-2.9Z" fill="#0f3051"/>
      <path id="Path_148" data-name="Path 148" d="M26.334,9.045l-1.806,6.929H22.485l-1.106-4.56-1.145,4.56H18.191L16.434,9.045H18.24l1,5.044,1.234-5.044h1.856l1.184,5.044,1.007-5.044Z" fill="#0f3051"/>
      <path id="Path_149" data-name="Path 149" d="M28.871,10.4v1.4h2.26v1.3h-2.26v1.52h2.556v1.352H27.182V9.046h4.244V10.4Z" fill="#0f3051"/>
      <path id="Path_150" data-name="Path 150" d="M36.835,14.751H34.249l-.414,1.224H32.068l2.507-6.929h1.954l2.507,6.929H37.25Zm-.434-1.3-.859-2.537-.849,2.537Z" fill="#0f3051"/>
      <path id="Path_151" data-name="Path 151" d="M41.485,14.672H43.7v1.3H39.8V9.046h1.688Z" fill="#0f3051"/>
      <path id="Path_152" data-name="Path 152" d="M49.489,9.045V10.4H47.653v5.577H45.965V10.4H44.129V9.045Z" fill="#0f3051"/>
      <path id="Path_153" data-name="Path 153" d="M56.339,9.045v6.929H54.651V13.121H52.026v2.853H50.338V9.045h1.688v2.714h2.625V9.045Z" fill="#0f3051"/>
      <path id="Path_154" data-name="Path 154" d="M17.944,26.38a2.221,2.221,0,0,1-.962-.731,1.986,1.986,0,0,1-.38-1.164h1.8a.869.869,0,0,0,.267.587.854.854,0,0,0,.592.2.927.927,0,0,0,.592-.172.577.577,0,0,0,.217-.479.567.567,0,0,0-.173-.424,1.4,1.4,0,0,0-.424-.277,7.092,7.092,0,0,0-.716-.247,7.811,7.811,0,0,1-1.095-.414,2.022,2.022,0,0,1-.731-.612,1.706,1.706,0,0,1-.306-1.056,1.816,1.816,0,0,1,.7-1.515,2.875,2.875,0,0,1,1.826-.548,2.909,2.909,0,0,1,1.846.548,1.961,1.961,0,0,1,.75,1.525H19.918a.71.71,0,0,0-.247-.528.864.864,0,0,0-.582-.193.725.725,0,0,0-.494.163.587.587,0,0,0-.187.469.58.58,0,0,0,.316.523,5.159,5.159,0,0,0,.987.4,9.169,9.169,0,0,1,1.091.434,2.081,2.081,0,0,1,.725.6,1.611,1.611,0,0,1,.306,1.017,1.99,1.99,0,0,1-.3,1.075,2.1,2.1,0,0,1-.874.77,2.985,2.985,0,0,1-1.352.287,3.571,3.571,0,0,1-1.362-.247" fill="#0f3051"/>
      <path id="Path_155" data-name="Path 155" d="M24.355,26.173A3.4,3.4,0,0,1,23.062,24.9a3.729,3.729,0,0,1,0-3.657,3.408,3.408,0,0,1,1.293-1.263,3.762,3.762,0,0,1,3.583,0,3.34,3.34,0,0,1,1.283,1.263,3.781,3.781,0,0,1-.005,3.657,3.369,3.369,0,0,1-1.283,1.269,3.752,3.752,0,0,1-3.578,0m3.119-1.639a2.4,2.4,0,0,0,0-2.926,1.705,1.705,0,0,0-1.328-.548,1.726,1.726,0,0,0-1.337.543,2.409,2.409,0,0,0,0,2.936,1.72,1.72,0,0,0,1.337.548,1.7,1.7,0,0,0,1.328-.553" fill="#0f3051"/>
      <path id="Path_156" data-name="Path 156" d="M32.315,25.255h2.211v1.3h-3.9V19.629h1.688Z" fill="#0f3051"/>
      <path id="Path_157" data-name="Path 157" d="M36.994,19.628v4.145a1.373,1.373,0,0,0,.306.958,1.153,1.153,0,0,0,.9.335,1.184,1.184,0,0,0,.908-.335,1.343,1.343,0,0,0,.316-.958V19.628H41.11v4.136a2.943,2.943,0,0,1-.4,1.569,2.524,2.524,0,0,1-1.061.967,3.337,3.337,0,0,1-1.485.326,3.251,3.251,0,0,1-1.466-.321,2.387,2.387,0,0,1-1.022-.967,3.09,3.09,0,0,1-.375-1.574V19.628Z" fill="#0f3051"/>
      <path id="Path_158" data-name="Path 158" d="M47.279,19.628V20.98H45.443v5.577H43.755V20.98H41.919V19.628Z" fill="#0f3051"/>
      <rect id="Rectangle_34" data-name="Rectangle 34" width="1.688" height="6.929" transform="translate(48.127 19.628)" fill="#0f3051"/>
      <path id="Path_159" data-name="Path 159" d="M52.525,26.173A3.4,3.4,0,0,1,51.232,24.9a3.729,3.729,0,0,1,0-3.657,3.408,3.408,0,0,1,1.293-1.263,3.762,3.762,0,0,1,3.583,0,3.34,3.34,0,0,1,1.283,1.263,3.781,3.781,0,0,1,0,3.657A3.376,3.376,0,0,1,56.1,26.173a3.752,3.752,0,0,1-3.578,0m3.119-1.639a2.4,2.4,0,0,0,0-2.926,1.705,1.705,0,0,0-1.328-.548,1.726,1.726,0,0,0-1.337.543,2.413,2.413,0,0,0,0,2.936,1.72,1.72,0,0,0,1.337.548,1.7,1.7,0,0,0,1.328-.553" fill="#0f3051"/>
      <path id="Path_160" data-name="Path 160" d="M65,26.557H63.308l-2.823-4.274v4.274H58.8V19.628h1.688l2.823,4.294V19.628H65Z" fill="#0f3051"/>
      <path id="Path_161" data-name="Path 161" d="M67.365,26.38a2.215,2.215,0,0,1-.962-.731,1.986,1.986,0,0,1-.38-1.164h1.8a.872.872,0,0,0,.266.587.858.858,0,0,0,.593.2.927.927,0,0,0,.592-.172.577.577,0,0,0,.217-.479.567.567,0,0,0-.173-.424,1.4,1.4,0,0,0-.424-.277,7.182,7.182,0,0,0-.716-.247,7.811,7.811,0,0,1-1.1-.414,2.022,2.022,0,0,1-.731-.612,1.706,1.706,0,0,1-.306-1.056,1.816,1.816,0,0,1,.7-1.515,2.875,2.875,0,0,1,1.826-.548,2.909,2.909,0,0,1,1.846.548,1.961,1.961,0,0,1,.75,1.525H69.339a.71.71,0,0,0-.247-.528.864.864,0,0,0-.582-.193.725.725,0,0,0-.494.163.587.587,0,0,0-.187.469.58.58,0,0,0,.316.523,5.16,5.16,0,0,0,.987.4,9.077,9.077,0,0,1,1.09.434,2.075,2.075,0,0,1,.726.6,1.611,1.611,0,0,1,.306,1.017,2,2,0,0,1-.3,1.075,2.1,2.1,0,0,1-.874.77,2.985,2.985,0,0,1-1.352.287,3.571,3.571,0,0,1-1.362-.247" fill="#0f3051"/>
      <path id="Path_162" data-name="Path 162" d="M93.668,13.6H91.082l-.414,1.224H88.9l2.507-6.929h1.954l2.507,6.929H94.083Zm-.434-1.3-.859-2.537L91.526,12.3Z" fill="#0f3051"/>
      <path id="Path_163" data-name="Path 163" d="M101.229,10.084a1.263,1.263,0,0,0-.538-.528,1.757,1.757,0,0,0-.824-.183,1.7,1.7,0,0,0-1.313.538,2.043,2.043,0,0,0-.493,1.436,2.065,2.065,0,0,0,.518,1.5,1.889,1.889,0,0,0,1.426.538,1.727,1.727,0,0,0,1.051-.316,1.789,1.789,0,0,0,.627-.908H99.541V10.913h3.672v1.569a3.3,3.3,0,0,1-.637,1.175,3.34,3.34,0,0,1-1.14.878,3.516,3.516,0,0,1-1.559.336,3.683,3.683,0,0,1-1.831-.449,3.2,3.2,0,0,1-1.254-1.249,3.666,3.666,0,0,1-.449-1.826,3.7,3.7,0,0,1,.449-1.831,3.2,3.2,0,0,1,1.249-1.253,3.656,3.656,0,0,1,1.826-.449,3.549,3.549,0,0,1,2.1.6,2.844,2.844,0,0,1,1.131,1.668Z" fill="#0f3051"/>
      <path id="Path_164" data-name="Path 164" d="M107.685,14.821,106.244,12.2h-.405v2.616h-1.688V7.892h2.833a3.118,3.118,0,0,1,1.4.286,1.974,1.974,0,0,1,.863.785,2.186,2.186,0,0,1,.287,1.11,2.069,2.069,0,0,1-.39,1.234,2.1,2.1,0,0,1-1.15.77l1.6,2.744Zm-1.846-3.81h1.046a.956.956,0,0,0,.7-.227.855.855,0,0,0,.232-.642.827.827,0,0,0-.232-.621.956.956,0,0,0-.7-.227h-1.046Z" fill="#0f3051"/>
      <path id="Path_165" data-name="Path 165" d="M112.072,14.436a3.385,3.385,0,0,1-1.293-1.268,3.73,3.73,0,0,1,0-3.657,3.4,3.4,0,0,1,1.293-1.263,3.762,3.762,0,0,1,3.583,0,3.334,3.334,0,0,1,1.283,1.263,3.781,3.781,0,0,1-.005,3.657,3.36,3.36,0,0,1-1.283,1.268,3.745,3.745,0,0,1-3.578,0m3.119-1.638a2.1,2.1,0,0,0,.5-1.461,2.1,2.1,0,0,0-.5-1.466,1.708,1.708,0,0,0-1.328-.547,1.726,1.726,0,0,0-1.337.543,2.089,2.089,0,0,0-.5,1.47,2.1,2.1,0,0,0,.5,1.466,1.72,1.72,0,0,0,1.337.548,1.7,1.7,0,0,0,1.328-.553" fill="#0f3051"/>
      <path id="Path_166" data-name="Path 166" d="M89.513,20.1a3.179,3.179,0,0,1,1.239-1.254,3.6,3.6,0,0,1,1.8-.449,3.439,3.439,0,0,1,2.112.652,3.128,3.128,0,0,1,1.175,1.776H93.984a1.5,1.5,0,0,0-.587-.661,1.653,1.653,0,0,0-.864-.227,1.61,1.61,0,0,0-1.263.543,2.417,2.417,0,0,0,0,2.9,1.61,1.61,0,0,0,1.263.543A1.653,1.653,0,0,0,93.4,23.7a1.5,1.5,0,0,0,.587-.662H95.84a3.109,3.109,0,0,1-1.175,1.772,3.462,3.462,0,0,1-2.112.647,3.588,3.588,0,0,1-1.8-.45,3.177,3.177,0,0,1-1.239-1.248,3.987,3.987,0,0,1,0-3.657" fill="#0f3051"/>
      <path id="Path_167" data-name="Path 167" d="M98.362,25.019a3.385,3.385,0,0,1-1.293-1.268,3.729,3.729,0,0,1,0-3.657,3.4,3.4,0,0,1,1.293-1.263,3.762,3.762,0,0,1,3.583,0,3.333,3.333,0,0,1,1.283,1.263,3.781,3.781,0,0,1,0,3.657,3.36,3.36,0,0,1-1.283,1.268,3.745,3.745,0,0,1-3.578,0m3.119-1.638a2.4,2.4,0,0,0,0-2.927,1.708,1.708,0,0,0-1.328-.547,1.726,1.726,0,0,0-1.337.543,2.089,2.089,0,0,0-.5,1.47,2.1,2.1,0,0,0,.5,1.466,1.72,1.72,0,0,0,1.337.548,1.7,1.7,0,0,0,1.328-.553" fill="#0f3051"/>
      <path id="Path_168" data-name="Path 168" d="M112.482,18.475V25.4h-1.688V21.249l-1.55,4.155h-1.362l-1.559-4.165V25.4h-1.688V18.475h1.994l1.944,4.8,1.925-4.8Z" fill="#0f3051"/>
      <path id="Path_169" data-name="Path 169" d="M121.543,18.475V25.4h-1.688V21.249L118.3,25.4h-1.362l-1.559-4.165V25.4H113.7V18.475h1.994l1.944,4.8,1.925-4.8Z" fill="#0f3051"/>
      <path id="Path_170" data-name="Path 170" d="M124.242,25.019a3.385,3.385,0,0,1-1.293-1.268,3.73,3.73,0,0,1,0-3.657,3.4,3.4,0,0,1,1.293-1.263,3.762,3.762,0,0,1,3.583,0,3.334,3.334,0,0,1,1.283,1.263,3.781,3.781,0,0,1-.005,3.657,3.36,3.36,0,0,1-1.283,1.268,3.745,3.745,0,0,1-3.578,0m3.119-1.638a2.4,2.4,0,0,0,0-2.927,1.708,1.708,0,0,0-1.328-.547,1.726,1.726,0,0,0-1.337.543,2.089,2.089,0,0,0-.5,1.47,2.1,2.1,0,0,0,.5,1.466,1.72,1.72,0,0,0,1.337.548,1.7,1.7,0,0,0,1.328-.553" fill="#0f3051"/>
      <path id="Path_171" data-name="Path 171" d="M135.026,18.909a3.1,3.1,0,0,1,1.268,1.219,3.861,3.861,0,0,1,0,3.618,3.092,3.092,0,0,1-1.273,1.224,4.043,4.043,0,0,1-1.91.434h-2.6V18.475h2.6a4.038,4.038,0,0,1,1.915.434m-.533,4.511a1.981,1.981,0,0,0,.533-1.48A1.85,1.85,0,0,0,133,19.916h-.8v4.027h.8a2.035,2.035,0,0,0,1.49-.523" fill="#0f3051"/>
      <rect id="Rectangle_35" data-name="Rectangle 35" width="1.688" height="6.929" transform="translate(137.69 18.475)" fill="#0f3051"/>
      <path id="Path_172" data-name="Path 172" d="M145.587,18.475v1.352h-1.836V25.4h-1.688V19.827h-1.836V18.475Z" fill="#0f3051"/>
      <rect id="Rectangle_36" data-name="Rectangle 36" width="1.688" height="6.929" transform="translate(146.435 18.475)" fill="#0f3051"/>
      <path id="Path_173" data-name="Path 173" d="M151.035,19.828v1.4h2.26v1.3h-2.26v1.52h2.556V25.4h-4.244V18.476h4.244v1.352Z" fill="#0f3051"/>
      <path id="Path_174" data-name="Path 174" d="M155.832,25.227a2.213,2.213,0,0,1-.962-.731,1.986,1.986,0,0,1-.38-1.164h1.8a.866.866,0,0,0,.267.587.854.854,0,0,0,.592.2.927.927,0,0,0,.592-.173.577.577,0,0,0,.217-.479.567.567,0,0,0-.173-.424,1.4,1.4,0,0,0-.424-.277,7.092,7.092,0,0,0-.716-.247,7.81,7.81,0,0,1-1.1-.414,2.022,2.022,0,0,1-.731-.612,1.706,1.706,0,0,1-.306-1.056,1.816,1.816,0,0,1,.7-1.515,2.881,2.881,0,0,1,1.826-.548,2.915,2.915,0,0,1,1.846.548,1.961,1.961,0,0,1,.75,1.525h-1.826a.71.71,0,0,0-.247-.528.864.864,0,0,0-.582-.193.721.721,0,0,0-.493.163.626.626,0,0,0,.128.992,5.16,5.16,0,0,0,.987.4,9.168,9.168,0,0,1,1.091.434,2.081,2.081,0,0,1,.725.6,1.611,1.611,0,0,1,.306,1.017,1.994,1.994,0,0,1-.3,1.076,2.114,2.114,0,0,1-.874.77,3,3,0,0,1-1.352.286,3.571,3.571,0,0,1-1.362-.247" fill="#0f3051"/>
      <rect id="Rectangle_37" data-name="Rectangle 37" width="1.688" height="6.929" transform="translate(255.915 7.882)" fill="#0f3051"/>
      <path id="Path_175" data-name="Path 175" d="M265.025,14.812h-1.688l-2.823-4.274v4.274h-1.688V7.883h1.688l2.823,4.294V7.883h1.688Z" fill="#0f3051"/>
      <path id="Path_176" data-name="Path 176" d="M271.234,7.883V9.235H269.4v5.577H267.71V9.235h-1.836V7.883Z" fill="#0f3051"/>
      <path id="Path_177" data-name="Path 177" d="M273.77,9.235v1.4h2.26v1.3h-2.26V13.46h2.556v1.352h-4.244V7.883h4.244V9.235Z" fill="#0f3051"/>
      <path id="Path_178" data-name="Path 178" d="M282.022,10.074a1.269,1.269,0,0,0-.538-.528,1.757,1.757,0,0,0-.824-.183,1.7,1.7,0,0,0-1.313.538,2.043,2.043,0,0,0-.493,1.436,2.065,2.065,0,0,0,.518,1.5,1.889,1.889,0,0,0,1.426.538,1.727,1.727,0,0,0,1.051-.316,1.8,1.8,0,0,0,.627-.908h-2.142V10.9h3.672v1.569a3.3,3.3,0,0,1-.637,1.175,3.34,3.34,0,0,1-1.14.878,3.516,3.516,0,0,1-1.559.336,3.683,3.683,0,0,1-1.831-.449,3.2,3.2,0,0,1-1.254-1.249,3.666,3.666,0,0,1-.449-1.826,3.7,3.7,0,0,1,.449-1.831,3.2,3.2,0,0,1,1.249-1.253A3.656,3.656,0,0,1,280.66,7.8a3.549,3.549,0,0,1,2.1.6,2.838,2.838,0,0,1,1.13,1.668Z" fill="#0f3051"/>
      <path id="Path_179" data-name="Path 179" d="M288.477,14.812,287.036,12.2h-.4v2.616h-1.688V7.883h2.833a3.119,3.119,0,0,1,1.4.286,1.974,1.974,0,0,1,.863.785,2.186,2.186,0,0,1,.287,1.11,2.062,2.062,0,0,1-.39,1.234,2.1,2.1,0,0,1-1.15.77l1.6,2.744ZM286.631,11h1.046a.955.955,0,0,0,.7-.227.855.855,0,0,0,.232-.642.827.827,0,0,0-.232-.621.955.955,0,0,0-.7-.227h-1.046Z" fill="#0f3051"/>
      <path id="Path_180" data-name="Path 180" d="M295.692,13.588h-2.586l-.414,1.224h-1.767l2.507-6.929h1.954l2.507,6.929h-1.786Zm-.434-1.3L294.4,9.748l-.849,2.537Z" fill="#0f3051"/>
      <path id="Path_181" data-name="Path 181" d="M303.638,7.883V9.235H301.8v5.577h-1.688V9.235h-1.836V7.883Z" fill="#0f3051"/>
      <path id="Path_182" data-name="Path 182" d="M306.174,9.235v1.4h2.26v1.3h-2.26V13.46h2.556v1.352h-4.244V7.883h4.244V9.235Z" fill="#0f3051"/>
      <path id="Path_183" data-name="Path 183" d="M314.337,8.317a3.1,3.1,0,0,1,1.268,1.219,3.577,3.577,0,0,1,.449,1.812,3.585,3.585,0,0,1-.449,1.806,3.092,3.092,0,0,1-1.273,1.224,4.043,4.043,0,0,1-1.91.434h-2.6V7.883h2.6a4.035,4.035,0,0,1,1.915.434m-.533,4.511a1.981,1.981,0,0,0,.533-1.48,1.85,1.85,0,0,0-2.023-2.024h-.8v4.027h.8a2.035,2.035,0,0,0,1.49-.523" fill="#0f3051"/>
      <path id="Path_184" data-name="Path 184" d="M257.6,24.092h2.211v1.3h-3.9V18.466H257.6Z" fill="#0f3051"/>
      <path id="Path_185" data-name="Path 185" d="M262.109,25.009a3.385,3.385,0,0,1-1.293-1.268,3.729,3.729,0,0,1,0-3.657,3.4,3.4,0,0,1,1.293-1.263,3.762,3.762,0,0,1,3.583,0,3.334,3.334,0,0,1,1.283,1.263,3.781,3.781,0,0,1-.005,3.657,3.367,3.367,0,0,1-1.283,1.268,3.745,3.745,0,0,1-3.578,0m3.119-1.638a2.4,2.4,0,0,0,0-2.927A1.708,1.708,0,0,0,263.9,19.9a1.726,1.726,0,0,0-1.337.543,2.089,2.089,0,0,0-.5,1.47,2.1,2.1,0,0,0,.5,1.466,1.72,1.72,0,0,0,1.337.548,1.7,1.7,0,0,0,1.328-.553" fill="#0f3051"/>
      <path id="Path_186" data-name="Path 186" d="M272.981,20.657a1.263,1.263,0,0,0-.538-.528,1.757,1.757,0,0,0-.824-.183,1.7,1.7,0,0,0-1.313.538,2.043,2.043,0,0,0-.493,1.436,2.065,2.065,0,0,0,.518,1.5,1.889,1.889,0,0,0,1.426.538,1.727,1.727,0,0,0,1.051-.316,1.8,1.8,0,0,0,.627-.908h-2.142V21.486h3.672v1.569a3.3,3.3,0,0,1-.637,1.175,3.34,3.34,0,0,1-1.14.878,3.516,3.516,0,0,1-1.559.336A3.683,3.683,0,0,1,269.8,25a3.2,3.2,0,0,1-1.254-1.249,3.948,3.948,0,0,1,0-3.657,3.2,3.2,0,0,1,1.249-1.253,3.656,3.656,0,0,1,1.826-.449,3.549,3.549,0,0,1,2.1.6,2.839,2.839,0,0,1,1.13,1.668Z" fill="#0f3051"/>
      <rect id="Rectangle_38" data-name="Rectangle 38" width="1.688" height="6.929" transform="translate(275.902 18.465)" fill="#0f3051"/>
      <path id="Path_187" data-name="Path 187" d="M279.959,25.217a2.213,2.213,0,0,1-.962-.731,1.986,1.986,0,0,1-.38-1.164h1.8a.866.866,0,0,0,.267.587.855.855,0,0,0,.592.2.927.927,0,0,0,.592-.173.577.577,0,0,0,.217-.479.567.567,0,0,0-.173-.424,1.4,1.4,0,0,0-.424-.277,7.092,7.092,0,0,0-.716-.247,7.811,7.811,0,0,1-1.1-.414,2.022,2.022,0,0,1-.731-.612,1.706,1.706,0,0,1-.306-1.056,1.816,1.816,0,0,1,.7-1.515,2.881,2.881,0,0,1,1.826-.548,2.913,2.913,0,0,1,1.846.548,1.961,1.961,0,0,1,.75,1.525h-1.826a.71.71,0,0,0-.247-.528.864.864,0,0,0-.582-.193.721.721,0,0,0-.493.163.626.626,0,0,0,.128.992,5.159,5.159,0,0,0,.987.4,9.169,9.169,0,0,1,1.091.434,2.081,2.081,0,0,1,.725.6,1.611,1.611,0,0,1,.306,1.017,2,2,0,0,1-.3,1.076,2.114,2.114,0,0,1-.874.77,3,3,0,0,1-1.352.286,3.571,3.571,0,0,1-1.362-.247" fill="#0f3051"/>
      <path id="Path_188" data-name="Path 188" d="M289.869,18.466v1.352h-1.836v5.577h-1.688V19.818h-1.836V18.466Z" fill="#0f3051"/>
      <rect id="Rectangle_39" data-name="Rectangle 39" width="1.688" height="6.929" transform="translate(290.717 18.465)" fill="#0f3051"/>
      <path id="Path_189" data-name="Path 189" d="M293.787,20.09a3.18,3.18,0,0,1,1.239-1.254,3.6,3.6,0,0,1,1.8-.449,3.439,3.439,0,0,1,2.112.652,3.123,3.123,0,0,1,1.175,1.776h-1.856a1.5,1.5,0,0,0-.587-.661,1.653,1.653,0,0,0-.864-.227,1.61,1.61,0,0,0-1.263.543,2.417,2.417,0,0,0,0,2.9,1.61,1.61,0,0,0,1.263.543,1.653,1.653,0,0,0,.864-.227,1.5,1.5,0,0,0,.587-.662h1.856a3.1,3.1,0,0,1-1.175,1.772,3.462,3.462,0,0,1-2.112.647,3.588,3.588,0,0,1-1.8-.45,3.177,3.177,0,0,1-1.239-1.248,3.987,3.987,0,0,1,0-3.657" fill="#0f3051"/>
      <path id="Path_190" data-name="Path 190" d="M302.3,25.217a2.213,2.213,0,0,1-.962-.731,1.986,1.986,0,0,1-.38-1.164h1.8a.866.866,0,0,0,.267.587.855.855,0,0,0,.592.2.927.927,0,0,0,.592-.173.577.577,0,0,0,.217-.479.567.567,0,0,0-.173-.424,1.4,1.4,0,0,0-.424-.277,7.092,7.092,0,0,0-.716-.247,7.811,7.811,0,0,1-1.1-.414,2.022,2.022,0,0,1-.731-.612,1.706,1.706,0,0,1-.306-1.056,1.816,1.816,0,0,1,.7-1.515,2.881,2.881,0,0,1,1.826-.548,2.913,2.913,0,0,1,1.846.548,1.961,1.961,0,0,1,.75,1.525h-1.826a.71.71,0,0,0-.247-.528.864.864,0,0,0-.582-.193.721.721,0,0,0-.493.163.626.626,0,0,0,.128.992,5.159,5.159,0,0,0,.987.4,9.172,9.172,0,0,1,1.091.434,2.081,2.081,0,0,1,.725.6,1.611,1.611,0,0,1,.306,1.017,2,2,0,0,1-.3,1.076,2.114,2.114,0,0,1-.874.77,3,3,0,0,1-1.352.286,3.571,3.571,0,0,1-1.362-.247" fill="#0f3051"/>
      <path id="Path_191" data-name="Path 191" d="M339.063,7.883V9.235h-1.836v5.577h-1.688V9.235H333.7V7.883Z" fill="#0f3051"/>
      <path id="Path_192" data-name="Path 192" d="M341.6,9.235v1.4h2.26v1.3H341.6V13.46h2.556v1.352h-4.244V7.883h4.244V9.235Z" fill="#0f3051"/>
      <path id="Path_193" data-name="Path 193" d="M345.409,9.507a3.179,3.179,0,0,1,1.239-1.254,3.6,3.6,0,0,1,1.8-.449,3.439,3.439,0,0,1,2.112.652,3.123,3.123,0,0,1,1.175,1.776H349.88a1.5,1.5,0,0,0-.587-.661,1.653,1.653,0,0,0-.864-.227,1.61,1.61,0,0,0-1.263.543,2.1,2.1,0,0,0-.484,1.451,2.1,2.1,0,0,0,.484,1.451,1.61,1.61,0,0,0,1.263.543,1.653,1.653,0,0,0,.864-.227,1.5,1.5,0,0,0,.587-.662h1.856a3.1,3.1,0,0,1-1.175,1.772,3.462,3.462,0,0,1-2.112.647,3.588,3.588,0,0,1-1.8-.45,3.177,3.177,0,0,1-1.239-1.248,3.7,3.7,0,0,1-.444-1.826,3.726,3.726,0,0,1,.444-1.831" fill="#0f3051"/>
      <path id="Path_194" data-name="Path 194" d="M358.773,7.883v6.929h-1.688V11.959H354.46v2.853h-1.688V7.883h1.688V10.6h2.625V7.883Z" fill="#0f3051"/>
      <path id="Path_195" data-name="Path 195" d="M335.223,25.217a2.214,2.214,0,0,1-.962-.731,1.986,1.986,0,0,1-.38-1.164h1.8a.866.866,0,0,0,.267.587.854.854,0,0,0,.592.2.927.927,0,0,0,.592-.173.577.577,0,0,0,.217-.479.567.567,0,0,0-.173-.424,1.4,1.4,0,0,0-.424-.277,7.091,7.091,0,0,0-.716-.247,7.809,7.809,0,0,1-1.1-.414,2.022,2.022,0,0,1-.731-.612,1.706,1.706,0,0,1-.306-1.056,1.816,1.816,0,0,1,.7-1.515,2.881,2.881,0,0,1,1.826-.548,2.915,2.915,0,0,1,1.846.548,1.961,1.961,0,0,1,.75,1.525H337.2a.71.71,0,0,0-.247-.528.864.864,0,0,0-.582-.193.721.721,0,0,0-.493.163.626.626,0,0,0,.128.992,5.16,5.16,0,0,0,.987.4,9.168,9.168,0,0,1,1.091.434,2.081,2.081,0,0,1,.725.6,1.611,1.611,0,0,1,.306,1.017,2,2,0,0,1-.3,1.076,2.114,2.114,0,0,1-.874.77,3,3,0,0,1-1.352.286,3.571,3.571,0,0,1-1.362-.247" fill="#0f3051"/>
      <path id="Path_196" data-name="Path 196" d="M341.634,25.009a3.385,3.385,0,0,1-1.293-1.268,3.729,3.729,0,0,1,0-3.657,3.4,3.4,0,0,1,1.293-1.263,3.762,3.762,0,0,1,3.583,0,3.333,3.333,0,0,1,1.283,1.263,3.781,3.781,0,0,1-.005,3.657,3.367,3.367,0,0,1-1.283,1.268,3.745,3.745,0,0,1-3.578,0m3.119-1.638a2.4,2.4,0,0,0,0-2.927,1.708,1.708,0,0,0-1.328-.547,1.726,1.726,0,0,0-1.337.543,2.409,2.409,0,0,0,0,2.936,1.719,1.719,0,0,0,1.337.548,1.7,1.7,0,0,0,1.328-.553" fill="#0f3051"/>
      <path id="Path_197" data-name="Path 197" d="M349.594,24.092h2.211v1.3h-3.9V18.466h1.688Z" fill="#0f3051"/>
      <path id="Path_198" data-name="Path 198" d="M354.273,18.466v4.145a1.373,1.373,0,0,0,.306.958,1.152,1.152,0,0,0,.9.335,1.184,1.184,0,0,0,.908-.335,1.343,1.343,0,0,0,.316-.958V18.466h1.688V22.6a2.943,2.943,0,0,1-.4,1.569,2.524,2.524,0,0,1-1.061.967,3.338,3.338,0,0,1-1.486.326,3.249,3.249,0,0,1-1.465-.321,2.387,2.387,0,0,1-1.022-.967,3.09,3.09,0,0,1-.375-1.574V18.466Z" fill="#0f3051"/>
      <path id="Path_199" data-name="Path 199" d="M364.557,18.466v1.352h-1.836v5.577h-1.688V19.818H359.2V18.466Z" fill="#0f3051"/>
      <rect id="Rectangle_40" data-name="Rectangle 40" width="1.688" height="6.929" transform="translate(365.406 18.465)" fill="#0f3051"/>
      <path id="Path_200" data-name="Path 200" d="M369.8,25.009a3.385,3.385,0,0,1-1.293-1.268,3.729,3.729,0,0,1,0-3.657,3.4,3.4,0,0,1,1.293-1.263,3.762,3.762,0,0,1,3.583,0,3.334,3.334,0,0,1,1.283,1.263,3.781,3.781,0,0,1-.005,3.657,3.367,3.367,0,0,1-1.283,1.268,3.745,3.745,0,0,1-3.578,0m3.119-1.638a2.4,2.4,0,0,0,0-2.927,1.708,1.708,0,0,0-1.328-.547,1.726,1.726,0,0,0-1.337.543,2.409,2.409,0,0,0,0,2.936,1.72,1.72,0,0,0,1.337.548,1.7,1.7,0,0,0,1.328-.553" fill="#0f3051"/>
      <path id="Path_201" data-name="Path 201" d="M382.275,25.395h-1.688l-2.823-4.274v4.274h-1.688V18.466h1.688l2.823,4.294V18.466h1.688Z" fill="#0f3051"/>
      <path id="Path_202" data-name="Path 202" d="M384.643,25.217a2.213,2.213,0,0,1-.962-.731,1.986,1.986,0,0,1-.38-1.164h1.8a.866.866,0,0,0,.267.587.854.854,0,0,0,.592.2.927.927,0,0,0,.592-.173.577.577,0,0,0,.217-.479.567.567,0,0,0-.173-.424,1.4,1.4,0,0,0-.424-.277,7.092,7.092,0,0,0-.716-.247,7.812,7.812,0,0,1-1.1-.414,2.022,2.022,0,0,1-.731-.612,1.706,1.706,0,0,1-.306-1.056,1.816,1.816,0,0,1,.7-1.515,2.881,2.881,0,0,1,1.826-.548,2.915,2.915,0,0,1,1.846.548,1.961,1.961,0,0,1,.75,1.525h-1.826a.71.71,0,0,0-.247-.528.864.864,0,0,0-.582-.193.725.725,0,0,0-.494.163.588.588,0,0,0-.187.469.58.58,0,0,0,.316.523,5.159,5.159,0,0,0,.987.4,9.17,9.17,0,0,1,1.091.434,2.081,2.081,0,0,1,.725.6,1.612,1.612,0,0,1,.306,1.017,2,2,0,0,1-.3,1.076,2.114,2.114,0,0,1-.874.77,3,3,0,0,1-1.352.286,3.571,3.571,0,0,1-1.362-.247" fill="#0f3051"/>
      <rect id="Rectangle_41" data-name="Rectangle 41" width="1.688" height="6.929" transform="translate(406.182 7.892)" fill="#0f3051"/>
      <path id="Path_203" data-name="Path 203" d="M415.292,14.821H413.6l-2.823-4.274v4.274h-1.688V7.892h1.688l2.823,4.294V7.892h1.688Z" fill="#0f3051"/>
      <path id="Path_204" data-name="Path 204" d="M417.661,14.644a2.213,2.213,0,0,1-.962-.731,1.986,1.986,0,0,1-.38-1.164h1.8a.87.87,0,0,0,.266.587.859.859,0,0,0,.593.2.927.927,0,0,0,.592-.173.577.577,0,0,0,.217-.479.567.567,0,0,0-.173-.424,1.4,1.4,0,0,0-.424-.277,7.092,7.092,0,0,0-.716-.247,7.811,7.811,0,0,1-1.1-.414,2.022,2.022,0,0,1-.731-.612,1.706,1.706,0,0,1-.306-1.056,1.816,1.816,0,0,1,.7-1.515,2.881,2.881,0,0,1,1.826-.548,2.915,2.915,0,0,1,1.846.548,1.961,1.961,0,0,1,.75,1.525h-1.826a.71.71,0,0,0-.247-.528.864.864,0,0,0-.582-.193.725.725,0,0,0-.494.163.588.588,0,0,0-.187.469.58.58,0,0,0,.316.523,5.159,5.159,0,0,0,.987.405,9.169,9.169,0,0,1,1.091.434,2.081,2.081,0,0,1,.725.6,1.611,1.611,0,0,1,.306,1.017,2,2,0,0,1-.3,1.076,2.114,2.114,0,0,1-.874.77,3,3,0,0,1-1.352.286,3.571,3.571,0,0,1-1.362-.247" fill="#0f3051"/>
      <path id="Path_205" data-name="Path 205" d="M424.245,7.892v4.145a1.373,1.373,0,0,0,.306.958,1.153,1.153,0,0,0,.9.335,1.184,1.184,0,0,0,.908-.335,1.343,1.343,0,0,0,.316-.958V7.892h1.688v4.136a2.943,2.943,0,0,1-.395,1.569,2.524,2.524,0,0,1-1.061.967,3.323,3.323,0,0,1-1.485.326,3.25,3.25,0,0,1-1.466-.321,2.387,2.387,0,0,1-1.022-.967,3.09,3.09,0,0,1-.375-1.574V7.892Z" fill="#0f3051"/>
      <path id="Path_206" data-name="Path 206" d="M433.079,14.821,431.638,12.2h-.4v2.616h-1.688V7.892h2.833a3.118,3.118,0,0,1,1.4.286,1.98,1.98,0,0,1,.863.785,2.185,2.185,0,0,1,.286,1.11,2.068,2.068,0,0,1-.389,1.234,2.1,2.1,0,0,1-1.15.77l1.6,2.744Zm-1.846-3.81h1.046a.956.956,0,0,0,.7-.227.855.855,0,0,0,.232-.642.827.827,0,0,0-.232-.621.956.956,0,0,0-.7-.227h-1.046Z" fill="#0f3051"/>
      <path id="Path_207" data-name="Path 207" d="M440.293,13.6h-2.586l-.414,1.224h-1.767l2.507-6.929h1.954l2.507,6.929h-1.786Zm-.434-1.3L439,9.758l-.849,2.537Z" fill="#0f3051"/>
      <path id="Path_208" data-name="Path 208" d="M449.453,14.821h-1.688l-2.823-4.274v4.274h-1.688V7.892h1.688l2.823,4.294V7.892h1.688Z" fill="#0f3051"/>
      <path id="Path_209" data-name="Path 209" d="M450.835,9.516a3.18,3.18,0,0,1,1.239-1.254,3.6,3.6,0,0,1,1.8-.449,3.439,3.439,0,0,1,2.112.652,3.123,3.123,0,0,1,1.175,1.776h-1.856a1.5,1.5,0,0,0-.587-.661,1.653,1.653,0,0,0-.864-.227,1.61,1.61,0,0,0-1.263.543,2.1,2.1,0,0,0-.484,1.451,2.1,2.1,0,0,0,.484,1.451,1.61,1.61,0,0,0,1.263.543,1.653,1.653,0,0,0,.864-.227,1.5,1.5,0,0,0,.587-.662h1.856a3.1,3.1,0,0,1-1.175,1.772,3.462,3.462,0,0,1-2.112.647,3.588,3.588,0,0,1-1.8-.45,3.177,3.177,0,0,1-1.239-1.248,3.7,3.7,0,0,1-.444-1.826,3.726,3.726,0,0,1,.444-1.831" fill="#0f3051"/>
      <path id="Path_210" data-name="Path 210" d="M459.886,9.245v1.4h2.26v1.3h-2.26v1.52h2.556v1.352H458.2V7.893h4.244V9.245Z" fill="#0f3051"/>
      <path id="Path_211" data-name="Path 211" d="M410.495,24.181h-2.586l-.414,1.224h-1.767l2.507-6.929h1.954l2.507,6.929H410.91Zm-.434-1.3-.859-2.537-.849,2.537Z" fill="#0f3051"/>
      <path id="Path_212" data-name="Path 212" d="M417.967,18.909a3.1,3.1,0,0,1,1.268,1.219,3.869,3.869,0,0,1,0,3.618,3.086,3.086,0,0,1-1.273,1.224,4.043,4.043,0,0,1-1.91.434h-2.6V18.475h2.6a4.035,4.035,0,0,1,1.915.434m-.533,4.511a1.981,1.981,0,0,0,.533-1.48,1.851,1.851,0,0,0-2.024-2.024h-.8v4.027h.8a2.036,2.036,0,0,0,1.491-.523" fill="#0f3051"/>
      <path id="Path_213" data-name="Path 213" d="M427.137,18.475,424.679,25.4h-2.112l-2.458-6.929h1.8l1.717,5.231,1.727-5.231Z" fill="#0f3051"/>
      <rect id="Rectangle_42" data-name="Rectangle 42" width="1.688" height="6.929" transform="translate(427.837 18.475)" fill="#0f3051"/>
      <path id="Path_214" data-name="Path 214" d="M431.894,25.227a2.208,2.208,0,0,1-.962-.731,1.986,1.986,0,0,1-.38-1.164h1.8a.866.866,0,0,0,.267.587.855.855,0,0,0,.592.2.927.927,0,0,0,.592-.173.577.577,0,0,0,.217-.479.567.567,0,0,0-.173-.424,1.4,1.4,0,0,0-.424-.277,7.093,7.093,0,0,0-.716-.247,7.811,7.811,0,0,1-1.1-.414,2.022,2.022,0,0,1-.731-.612,1.706,1.706,0,0,1-.306-1.056,1.816,1.816,0,0,1,.7-1.515,2.881,2.881,0,0,1,1.826-.548,2.913,2.913,0,0,1,1.846.548,1.961,1.961,0,0,1,.75,1.525h-1.826a.71.71,0,0,0-.247-.528.864.864,0,0,0-.582-.193.725.725,0,0,0-.494.163.588.588,0,0,0-.187.469.58.58,0,0,0,.316.523,5.159,5.159,0,0,0,.987.4,9.079,9.079,0,0,1,1.09.434,2.075,2.075,0,0,1,.726.6,1.611,1.611,0,0,1,.306,1.017,1.994,1.994,0,0,1-.3,1.076,2.114,2.114,0,0,1-.874.77,3,3,0,0,1-1.352.286,3.571,3.571,0,0,1-1.362-.247" fill="#0f3051"/>
      <path id="Path_215" data-name="Path 215" d="M438.3,25.019a3.385,3.385,0,0,1-1.293-1.268,3.729,3.729,0,0,1,0-3.657,3.4,3.4,0,0,1,1.293-1.263,3.762,3.762,0,0,1,3.583,0,3.333,3.333,0,0,1,1.283,1.263,3.781,3.781,0,0,1-.005,3.657,3.366,3.366,0,0,1-1.283,1.268,3.745,3.745,0,0,1-3.578,0m3.119-1.638a2.4,2.4,0,0,0,0-2.927,1.9,1.9,0,0,0-2.665,0,2.409,2.409,0,0,0,0,2.936,1.719,1.719,0,0,0,1.337.548,1.7,1.7,0,0,0,1.328-.553" fill="#0f3051"/>
      <path id="Path_216" data-name="Path 216" d="M448.111,25.4l-1.441-2.616h-.4V25.4h-1.688V18.475h2.833a3.119,3.119,0,0,1,1.4.286,1.974,1.974,0,0,1,.863.785,2.186,2.186,0,0,1,.287,1.11,2.062,2.062,0,0,1-.39,1.234,2.1,2.1,0,0,1-1.15.77l1.6,2.744Zm-1.846-3.81h1.046a.956.956,0,0,0,.7-.227.855.855,0,0,0,.232-.642.827.827,0,0,0-.232-.621.956.956,0,0,0-.7-.227h-1.046Z" fill="#0f3051"/>
      <path id="Path_217" data-name="Path 217" d="M456.955,18.475l-2.4,4.639V25.4h-1.687v-2.29l-2.4-4.639h1.915l1.342,2.9,1.333-2.9Z" fill="#0f3051"/>
    </g>
    <g id="Group_19" data-name="Group 19" transform="translate(485 5)">
      <rect id="Rectangle_44" data-name="Rectangle 44" width="122" height="21" fill="#d12027"/>
      <text id="https:_kunvarjiwealth.com_" data-name="https://kunvarjiwealth.com/" transform="translate(1.2 13.675)" fill="#fff" font-size="8" font-family="Poppins-SemiBold, Poppins" font-weight="600"><tspan x="0" y="0">https://kunvarjiwealth.com/</tspan></text>
    </g>
  </g>
</svg>
