<?xml version="1.0" encoding="utf-8"?>
<!-- Generator: Adobe Illustrator 27.0.1, SVG Export Plug-In . SVG Version: 6.00 Build 0)  -->
<svg version="1.1" id="Layer_1" xmlns="http://www.w3.org/2000/svg" xmlns:xlink="http://www.w3.org/1999/xlink" x="0px" y="0px"
	 viewBox="0 0 228.8 174" style="enable-background:new 0 0 228.8 174;" xml:space="preserve">
<style type="text/css">
	.st0{fill-rule:evenodd;clip-rule:evenodd;fill:#F7F7F7;}
	.st1{fill-rule:evenodd;clip-rule:evenodd;fill:#11436F;}
	.st2{fill-rule:evenodd;clip-rule:evenodd;fill:#FFFFFF;}
	.st3{fill-rule:evenodd;clip-rule:evenodd;fill:#D12027;}
	.st4{fill:#0F3051;}
	.st5{fill-rule:evenodd;clip-rule:evenodd;fill:none;}
	.st6{clip-path:url(#SVGID_00000168079767591468576730000015758268518454739609_);}
	.st7{fill-rule:evenodd;clip-rule:evenodd;fill:#00537F;}
	.st8{fill-rule:evenodd;clip-rule:evenodd;fill:#023443;}
	.st9{fill-rule:evenodd;clip-rule:evenodd;fill:#D62129;}
	.st10{fill-rule:evenodd;clip-rule:evenodd;fill:#6E6D70;}
	.st11{clip-path:url(#SVGID_00000146471044546229992910000012865432134187219341_);}
	.st12{fill:#004A78;}
	.st13{fill:none;stroke:#004A78;stroke-width:0.5;stroke-miterlimit:10;}
</style>
<g>
	<defs>
		<rect id="SVGID_00000027586056073525291600000014681692351054113932_" width="228.8" height="174"/>
	</defs>
	<clipPath id="SVGID_00000134959355265308050430000016257550690433200565_">
		<use xlink:href="#SVGID_00000027586056073525291600000014681692351054113932_"  style="overflow:visible;"/>
	</clipPath>
	<g style="clip-path:url(#SVGID_00000134959355265308050430000016257550690433200565_);">
		
			<image style="overflow:visible;opacity:0.1;" width="542" height="324" xlink:href="A299E17F.png"  transform="matrix(0.467 0 0 0.467 15.2004 16.8896)">
		</image>
		<g>
			<path class="st2" d="M34,35.3c0-0.4,0.4-0.6,0.7-0.6h191.1c0,0,31.5-0.1,23.2,31.6l-18.5,83.5c-0.2,0.8-1.3,0.7-1.4-0.1
				c-1.1-7.8-6.6-21-30.7-21h-99C99.4,128.8,22.2,128.5,34,35.3z"/>
		</g>
	</g>
	<g style="clip-path:url(#SVGID_00000134959355265308050430000016257550690433200565_);">
		<g>
			<path class="st7" d="M53.7,75l4.3-22.3c0,0,0,0,0,0l5.9,0c0,0,0,0,0,0l-2.1,10.7c0,0,0,0,0,0l8.8-10.7c0,0,0,0,0,0l7.2,0
				c0,0,0,0,0,0l-9.8,11.5c0,0,0,0,0,0L74.8,75c0,0,0,0,0,0L68,75c0,0,0,0,0,0l-6.2-11c0,0,0,0,0,0l-2.1,11c0,0,0,0,0,0L53.7,75
				C53.7,75,53.7,75,53.7,75z"/>
			<path class="st7" d="M94.2,52.6l5.6,0c0.1,0,0.2,0.1,0.2,0.2l-2.7,14c-0.5,2.6-1.7,4.7-3.7,6.3c-1.9,1.5-4.5,2.3-7.8,2.3
				c-1.4,0-2.6-0.2-3.7-0.6c-1.1-0.4-2-0.9-2.8-1.5c-0.8-0.7-1.3-1.4-1.8-2.3c-0.4-0.9-0.6-1.8-0.6-2.9c0-0.3,0-0.6,0-0.9
				c0-0.3,0.1-0.5,0.1-0.7l2.7-13.8c0-0.1,0.1-0.1,0.2-0.1l5.5,0c0.1,0,0.2,0.1,0.2,0.2L82.8,67c-0.1,0.4-0.1,0.7-0.1,1
				c0,1,0.3,1.8,0.9,2.3c0.6,0.6,1.5,0.8,2.8,0.8c1.3,0,2.4-0.4,3.2-1.1c0.8-0.7,1.4-1.8,1.6-3.1L94,52.8
				C94,52.7,94.1,52.6,94.2,52.6z"/>
			<path class="st7" d="M115.3,75l-7.2-13.2c-0.1-0.1-0.3-0.1-0.3,0l-2.6,13.1c0,0.1-0.1,0.1-0.2,0.1l-5.5,0c-0.1,0-0.2-0.1-0.2-0.2
				l4.3-22c0-0.1,0.1-0.1,0.2-0.1l5.6,0c0.1,0,0.1,0,0.2,0.1l7.2,13.2c0.1,0.1,0.3,0.1,0.3-0.1l2.5-13.1c0-0.1,0.1-0.1,0.2-0.1
				l5.5,0c0.1,0,0.2,0.1,0.2,0.2l-4.3,22c0,0.1-0.1,0.1-0.2,0.1l-5.6,0C115.4,75,115.4,75,115.3,75z"/>
			<path class="st7" d="M137.6,75.1l-6.6,0c-0.1,0-0.2-0.1-0.2-0.1l-3.4-22c0-0.1,0.1-0.2,0.2-0.2l5.7,0c0.1,0,0.2,0.1,0.2,0.2
				l1.7,15.3c0,0.2,0.2,0.2,0.3,0.1l8.7-15.4c0-0.1,0.1-0.1,0.2-0.1l6.2,0c0.1,0,0.2,0.1,0.1,0.3l-13,22
				C137.8,75,137.7,75.1,137.6,75.1z"/>
			<path class="st7" d="M153.6,66.5l5.7,0c0.1,0,0.2-0.1,0.2-0.2l-1.3-8.3c0-0.2-0.2-0.2-0.3-0.1l-4.4,8.3
				C153.4,66.3,153.4,66.5,153.6,66.5L153.6,66.5z M160.1,70.7l-9,0c-0.1,0-0.1,0-0.2,0.1l-2.3,4.2c0,0.1-0.1,0.1-0.2,0.1l-6.1,0
				c-0.1,0-0.2-0.1-0.1-0.3l13.3-22c0-0.1,0.1-0.1,0.1-0.1l6.3,0c0.1,0,0.2,0.1,0.2,0.1l4.8,22c0,0.1-0.1,0.2-0.2,0.2l-5.7,0
				c-0.1,0-0.2-0.1-0.2-0.1l-0.7-4.1C160.2,70.8,160.1,70.7,160.1,70.7z"/>
			<path class="st7" d="M178.2,63.1c0.7,0,1.4-0.1,2.1-0.2c0.7-0.1,1.3-0.3,1.8-0.6c0.5-0.3,0.9-0.7,1.2-1.1
				c0.3-0.5,0.5-1.1,0.5-1.8c0-0.9-0.3-1.6-0.9-2c-0.6-0.4-1.4-0.6-2.3-0.6l-2.4,0c-0.1,0-0.2,0.1-0.2,0.1l-1.2,5.9
				c0,0.1,0.1,0.2,0.2,0.2L178.2,63.1L178.2,63.1z M189.6,59.1c0,0.9-0.2,1.7-0.5,2.5c-0.3,0.8-0.7,1.4-1.3,2
				c-0.6,0.6-1.2,1.1-2,1.6c-0.7,0.4-1.5,0.8-2.3,1.1c-0.1,0-0.1,0.2-0.1,0.3l6,8.4c0.1,0.1,0,0.3-0.1,0.3l-6.4,0
				c-0.1,0-0.1,0-0.1-0.1l-5.2-7.8c0,0-0.1-0.1-0.1-0.1l-1.2,0c-0.1,0-0.2,0.1-0.2,0.1l-1.5,7.6c0,0.1-0.1,0.1-0.2,0.1l-5.6,0
				c-0.1,0-0.2-0.1-0.2-0.2l4.3-22c0-0.1,0.1-0.1,0.2-0.1l8.4,0c1.3,0,2.4,0.2,3.4,0.5c1,0.3,1.9,0.7,2.6,1.3c0.7,0.6,1.2,1.2,1.6,2
				C189.5,57.3,189.6,58.1,189.6,59.1z"/>
			<path class="st7" d="M200.4,69.9c-0.2,1.1-0.5,2.1-0.8,3.1c-0.4,1-0.9,2-1.5,2.9c-0.6,0.9-1.4,1.8-2.4,2.7
				c-0.9,0.8-2.1,1.6-3.5,2.4c-0.1,0-0.2,0-0.2,0l-2.7-3.2c-0.1-0.1,0-0.2,0-0.3c0.7-0.5,1.3-1,1.8-1.5c0.6-0.5,1.1-1.1,1.5-1.7
				c0.4-0.6,0.8-1.3,1.1-2c0.3-0.7,0.5-1.5,0.7-2.4l3.3-17c0-0.1,0.1-0.1,0.2-0.1l5.6,0c0.1,0,0.2,0.1,0.2,0.2L200.4,69.9z"/>
			<path class="st7" d="M209.3,75.1l-5.6,0c-0.1,0-0.2-0.1-0.2-0.2l4.3-22c0-0.1,0.1-0.1,0.2-0.1l5.6,0c0.1,0,0.2,0.1,0.2,0.2
				l-4.3,22C209.4,75.1,209.4,75.1,209.3,75.1z"/>
			<path class="st8" d="M57.1,57.3L56.6,60c0,0,5.3-1.6,5.9,0.3l0.6-2.9L57.1,57.3z"/>
			<path class="st9" d="M48.6,51.5l13.7,0c0,0,2.2,0,1.7,2.3l-1.4,6.4c0,0,0.3-1.9-2.2-1.9l-7.1,0C53.3,58.2,47.7,58.2,48.6,51.5z"
				/>
		</g>
		<g>
			<path class="st7" d="M74.1,94.2c-0.5,0-1.3,0.2-1.3,0.2c-0.1,0-0.1,0.1,0,0.1c0,0,0.7,0.3,1,0.5c0.3,0.2,0.5,0.3,0.5,0.3
				c0.1,0.1,0.1,0.2,0,0.2c0,0-0.1,0.2-0.3,0.5c-0.2,0.3-0.3,0.6-0.6,1.1c-0.2,0.4-0.4,0.9-0.7,1.4c-0.2,0.5-0.6,1.4-0.6,1.4
				c0,0.1-0.1,0.2-0.1,0.3c0,0-1,2.2-1.2,2.9c-0.3,0.8-0.4,1.4-0.4,1.4c0,0.1,0,0.2,0.1,0.2c0,0,0.2,0,0.4,0.1c0.2,0,0.4,0,0.7,0
				c0.8,0,1.6-0.2,2.4-0.6c0.8-0.4,1.4-0.9,2-1.6c0.6-0.7,1-1.4,1.3-2.3c0.3-0.9,0.5-1.8,0.5-2.7c0-1.1-0.3-1.9-1-2.5
				C76.1,94.5,75.2,94.2,74.1,94.2L74.1,94.2z M68.7,104.2c-0.1-0.1-0.1-0.2,0-0.3c0,0,0.3-0.6,0.5-1.2c0.2-0.5,0.4-1.1,0.7-1.7
				c0.2-0.6,0.5-1.3,0.7-1.9c0.2-0.7,0.5-1.3,0.7-1.9c0.2-0.6,0.4-1.1,0.6-1.6c0.2-0.5,0.3-0.9,0.3-0.9c0-0.1,0-0.1-0.1-0.1
				c0,0-1.1,0.6-1.5,1.1c-0.5,0.5-1,1.9-1,1.9c0,0.1-0.1,0.1-0.2,0.1c0,0-0.3-0.2-0.5-0.4c-0.2-0.2-0.3-0.6-0.3-0.6
				c0-0.1,0-0.2,0-0.3c0,0,0.2-0.7,0.5-1.1c0.3-0.4,0.6-0.7,1.1-1c0.4-0.3,0.9-0.5,1.5-0.6c0.6-0.1,1.2-0.2,1.8-0.2
				c0.8,0,1.6,0.1,2.3,0.4c0.7,0.2,1.3,0.6,1.8,1c0.5,0.4,0.9,1,1.2,1.6c0.3,0.6,0.4,1.3,0.4,2c0,1-0.2,2-0.6,2.9
				c-0.4,0.9-0.9,1.7-1.5,2.4c-0.6,0.7-1.4,1.3-2.2,1.7c-0.8,0.4-1.7,0.6-2.6,0.6c-0.8,0-1.6-0.2-2.2-0.5
				C69.3,105.2,68.7,104.2,68.7,104.2z"/>
			<path class="st7" d="M79.2,104.7c0-0.1-0.1-0.2-0.1-0.3c0,0,0.1-0.5,0.2-1c0.1-0.5,0.3-1,0.5-1.6c0.2-0.6,0.4-1.1,0.6-1.7
				c0.2-0.6,0.4-1.1,0.6-1.5c0.1-0.3,0.3-0.6,0.4-0.8c0.1-0.2,0.2-0.3,0.2-0.3c0.1-0.1,0.2-0.1,0.3-0.1c0,0,0.1,0,0.3,0.1
				c0.2,0.1,0.3,0.1,0.4,0.2c0.1,0.1,0.3,0.1,0.4,0.2c0.1,0.1,0.1,0.1,0.1,0.1c0.1,0.1,0.1,0.2,0,0.3c0,0-0.4,0.6-0.6,1
				c-0.2,0.4-0.6,1.5-0.6,1.5c0,0.1,0,0.1,0.1,0c0,0,0.9-0.9,1.4-1.3c0.4-0.5,1.1-1.4,1.1-1.4c0.1-0.1,0.2-0.2,0.3-0.2
				c0,0,0,0,0.2,0c0.1,0,0.3,0,0.4,0.1c0.1,0,0.2,0.1,0.2,0.1c0.1,0.1,0.1,0.2,0.1,0.3c0,0-0.2,0.8-0.2,1.3c0,0.5,0.1,0.9,0.1,0.9
				c0,0.1,0,0.2,0,0.3c0,0,0,0-0.1,0.2c-0.1,0.2-0.3,0.4-0.3,0.4c-0.1,0.1-0.2,0.1-0.3,0c0,0-0.4-0.3-0.6-0.5
				c-0.2-0.3-0.4-0.7-0.4-0.7c0-0.1-0.1-0.1-0.2-0.1c0,0-0.8,0.6-1.1,0.9c-0.3,0.3-0.6,0.7-0.9,1.1c-0.2,0.4-0.5,0.9-0.6,1.4
				s-0.5,1.7-0.5,1.7c0,0.1-0.1,0.2-0.2,0.1c0,0,0,0-0.2-0.1c-0.1-0.1-0.3-0.1-0.4-0.2c-0.1-0.1-0.2-0.2-0.3-0.3
				C79.3,104.7,79.2,104.7,79.2,104.7z"/>
			<path class="st7" d="M88.6,97c-0.1-0.2-0.1-0.3-0.1-0.4c0-0.1,0-0.2,0-0.3c0-0.1,0-0.2,0-0.4c0-0.2,0.1-0.3,0.1-0.5
				c0-0.2,0.1-0.4,0.2-0.6c0.1-0.2,0.1-0.4,0.2-0.5c0,0,0,0,0,0c0.1,0,0.3,0,0.4,0.1c0.2,0.1,0.4,0.2,0.6,0.3
				c0.2,0.1,0.4,0.2,0.5,0.4c0.1,0.1,0.3,0.2,0.3,0.3c0,0,0,0,0,0c-0.1,0.1-0.3,0.3-0.4,0.5c-0.2,0.2-0.4,0.4-0.5,0.6
				c-0.2,0.2-0.3,0.4-0.5,0.6c-0.1,0.2-0.2,0.3-0.2,0.3c0,0.1-0.2,0.1-0.3,0.1c0,0-0.1,0-0.2-0.1C88.7,97.3,88.6,97.1,88.6,97
				L88.6,97z M85.6,103.8c0-0.1,0-0.2,0-0.3c0-0.1,0-0.3,0.1-0.6c0-0.2,0.1-0.5,0.2-0.8c0.1-0.3,0.2-1,0.2-1c0-0.1,0.1-0.2,0.1-0.3
				c0,0,0-0.1,0.1-0.3c0.1-0.2,0.2-0.5,0.3-0.7c0.1-0.3,0.3-0.5,0.4-0.7c0.2-0.2,0.4-0.4,0.6-0.5c0,0,0,0,0,0c0.2,0,0.4,0.1,0.7,0.3
				c0.3,0.2,0.5,0.4,0.7,0.7c0,0,0,0,0,0c-0.2,0.3-0.4,0.5-0.6,0.8c-0.2,0.3-0.3,0.5-0.4,0.8c-0.1,0.3-0.2,0.6-0.4,0.9
				c-0.1,0.3-0.2,0.6-0.4,1c-0.1,0.3-0.2,0.6-0.3,0.9c-0.1,0.3-0.1,0.6-0.2,0.8c0,0.2,0,0.3,0,0.4c0,0.1,0,0.1-0.1,0.1
				c0,0-0.1,0-0.2-0.1c-0.1-0.1-0.3-0.1-0.4-0.2c-0.1-0.1-0.2-0.2-0.3-0.4C85.7,104.3,85.6,104.1,85.6,103.8z"/>
			<path class="st7" d="M89.9,99.4c0-0.2,0-0.4,0-0.5c0-0.2,0.1-0.3,0.2-0.4c0.1-0.1,0.2-0.2,0.3-0.3c0.1-0.1,0.3-0.1,0.6-0.1
				c0.1,0,0.3,0,0.5,0c0.2,0,0.3,0.1,0.4,0.1c0,0,0,0.1,0,0.1c0,0.2-0.1,0.3-0.1,0.4c0,0.1,0,0.3-0.1,0.4c0,0.2,0,0.4,0,0.6
				c0,0.2,0,0.5,0,0.9c0,0.7-0.1,1.3-0.1,1.9c0,0.6-0.2,1.1-0.3,1.7c0,0,0,0.1,0,0.1c0.2-0.1,0.3-0.3,0.5-0.5
				c0.2-0.2,0.4-0.5,0.6-0.7c0.2-0.3,0.4-0.6,0.7-0.9c0.2-0.3,0.4-0.6,0.6-0.9c0.2-0.4,0.5-1,0.8-1.6c0.3-0.7,0.5-1.3,0.7-2.1
				c0.1,0,0.1,0,0.2,0c0.1,0,0.2,0.1,0.3,0.1c0.1,0,0.2,0.1,0.3,0.1c0.1,0,0.1,0.1,0.2,0.1c0,0.4-0.1,0.9-0.3,1.4
				c-0.2,0.5-0.4,0.9-0.7,1.3c-0.3,0.4-0.6,0.8-0.9,1.2c-0.3,0.4-0.6,0.7-0.8,1c-0.5,0.6-1,1.1-1.5,1.6c-0.5,0.4-1.1,0.9-1.8,1.3
				c0,0,0,0-0.1,0c-0.3-0.1-0.5-0.2-0.6-0.4c-0.2-0.2-0.2-0.3-0.2-0.5c0-0.1,0-0.3,0.1-0.4c0.1-0.2,0.1-0.4,0.2-0.6
				c0.1-0.3,0.1-0.6,0.2-1c0.1-0.4,0.1-0.9,0.1-1.5c0-0.3,0-0.7,0-1C89.9,99.8,89.9,99.6,89.9,99.4z"/>
			<path class="st7" d="M100.2,99c-0.3,0-0.6,0.2-0.9,0.3c-0.3,0.2-0.6,0.4-0.8,0.7c-0.3,0.3-0.5,0.7-0.7,1.1
				c-0.2,0.4-0.4,0.9-0.5,1.3c0.8-0.4,1.5-0.9,2.1-1.5C99.9,100.3,100.2,99.7,100.2,99L100.2,99z M101.3,98.5c0,0.6-0.2,1.2-0.3,1.7
				c-0.2,0.5-0.5,0.9-0.8,1.2c-0.3,0.3-0.8,0.7-1.3,0.9c-0.5,0.3-1.1,0.5-1.7,0.8c0,0.1,0,0.1,0,0.2c0,0.1,0,0.1,0,0.2
				c0,0.1,0,0.3,0,0.4c0,0.1,0.1,0.3,0.1,0.4c0.1,0.1,0.1,0.2,0.2,0.3c0.1,0.1,0.2,0.1,0.4,0.1c0.3,0,0.6-0.1,0.8-0.2
				c0.3-0.1,0.5-0.3,0.8-0.5c0.2-0.2,0.5-0.4,0.7-0.6c0.2-0.2,0.4-0.4,0.6-0.6c0.1,0.1,0.2,0.2,0.3,0.3c-0.5,0.6-1,1.1-1.5,1.5
				c-0.4,0.3-0.9,0.6-1.3,0.7c-0.2,0.1-0.4,0.1-0.7,0c-0.6-0.1-1-0.4-1.3-0.7c-0.4-0.4-0.6-1-0.6-1.6c0-0.4,0.1-0.9,0.2-1.3
				c0.1-0.4,0.3-0.9,0.5-1.3c0.2-0.4,0.5-0.8,0.7-1.2c0.3-0.4,0.6-0.7,0.9-0.9c0.3-0.3,0.7-0.5,1-0.6c0.3-0.2,0.7-0.2,1-0.2
				C100.4,97.6,100.9,97.9,101.3,98.5z"/>
			<path class="st7" d="M104.2,97.5c0.1-0.1,0.2-0.1,0.3,0c0,0,0.4,0.2,0.6,0.5c0.2,0.3,0.5,0.8,0.5,0.8c0,0.1,0,0.2,0,0.3
				c0,0-0.2,0.5-0.5,0.9c-0.2,0.4-0.5,0.8-0.7,1.2c-0.2,0.4-0.5,0.8-0.6,1.2c-0.2,0.4-0.3,0.7-0.3,0.7c0,0.1,0,0.1,0.1,0
				c0,0,0.2-0.3,0.4-0.5c0.2-0.2,0.4-0.5,0.6-0.7c0.2-0.2,0.4-0.4,0.5-0.6c0.2-0.2,0.3-0.3,0.3-0.3c0.1-0.1,0.2-0.2,0.2-0.2
				c0,0,0.3-0.3,0.6-0.6c0.3-0.3,0.6-0.5,0.8-0.8c0.3-0.2,0.6-0.4,0.9-0.6c0.3-0.2,0.6-0.3,0.8-0.3c0.3,0,0.5,0.1,0.7,0.3
				c0.2,0.2,0.3,0.4,0.3,0.4c0.1,0.1,0.1,0.2,0.1,0.2l-0.1,0c-0.1,0-0.2,0.1-0.3,0.3c-0.1,0.2-0.3,0.4-0.5,0.8
				c-0.2,0.3-0.4,0.7-0.5,1.1c-0.2,0.4-0.3,0.8-0.4,1.2c-0.1,0.4-0.2,0.8-0.2,1.1c0,0.3,0,0.4,0.1,0.5c0.1,0.1,0.2,0.1,0.3,0.1
				c0.1,0,0.2,0,0.4-0.1c0.1-0.1,0.2-0.1,0.3-0.1c0,0,0.1,0.1,0.1,0.1l0,0.1c0,0.1,0,0.2-0.1,0.2c0,0,0,0-0.2,0.1
				c-0.1,0.1-0.2,0.1-0.4,0.2c-0.1,0.1-0.2,0.1-0.4,0.2c-0.1,0-0.2,0.1-0.3,0.1c-0.3,0-0.5,0-0.7-0.1c-0.2-0.1-0.3-0.2-0.4-0.3
				c-0.1-0.1-0.2-0.3-0.2-0.5c0-0.2-0.1-0.4-0.1-0.6c0-0.1,0-0.3,0-0.4c0-0.2,0.1-0.3,0.1-0.6c0.1-0.2,0.2-0.5,0.3-0.8
				c0.1-0.3,0.4-0.9,0.4-0.9c0-0.1,0-0.1-0.1-0.1c0,0,0,0-0.3,0.1c-0.3,0.1-0.7,0.6-0.7,0.6c-0.1,0.1-0.2,0.2-0.3,0.2
				c0,0-0.8,0.8-1.2,1.3c-0.4,0.5-1.1,1.4-1.1,1.4c-0.1,0.1-0.1,0.2-0.2,0.3c0,0-0.3,0.5-0.5,0.7c-0.2,0.2-0.3,0.3-0.3,0.3
				c-0.1,0.1-0.2,0.1-0.3,0c0,0-0.2-0.2-0.3-0.4c-0.1-0.1-0.1-0.2-0.1-0.3c-0.1-0.2-0.1-0.5-0.1-0.7c0-0.1,0-0.2,0.1-0.4
				c0.1-0.3,0.1-0.6,0.2-1c0.1-0.4,0.2-0.8,0.4-1.2c0.1-0.4,0.4-1.1,0.4-1.1c0-0.1,0.1-0.2,0.1-0.3c0,0,0.7-1.5,1-2
				C104.1,97.7,104.2,97.5,104.2,97.5z"/>
			<path class="st7" d="M121.8,94.7c-0.2,0-0.4,0-0.7,0c-0.2,0-0.5,0.1-0.8,0.1c0,0,0.1,0.1,0.1,0.1c0,0,0,0.1,0.1,0.1
				c-0.1,0.1-0.2,0.3-0.3,0.5c-0.1,0.2-0.3,0.5-0.5,0.8c-0.2,0.3-0.3,0.7-0.5,1c-0.1,0.3-0.3,0.6-0.4,0.9c-0.1,0.1,0,0.3,0.2,0.3
				c0.1,0,0.2,0,0.3,0c0.3,0,0.5,0,0.8,0c0.1,0,0.3,0,0.4,0c0,0,0.1,0,0.1,0c0.2,0,0.4,0,0.7,0c0.3-0.1,0.7-0.2,1-0.3
				c0.4-0.2,0.7-0.3,1-0.6c0.3-0.2,0.5-0.4,0.7-0.7c0.2-0.3,0.2-0.5,0.2-0.8c0-0.5-0.2-0.9-0.6-1.1
				C123.1,94.8,122.5,94.7,121.8,94.7L121.8,94.7z M118.8,100c-0.1-0.1-0.3-0.1-0.4-0.2c-0.1-0.1-0.2,0-0.3,0.1
				c-0.2,0.5-0.4,0.9-0.6,1.3c-0.2,0.5-0.4,1-0.6,1.4c-0.2,0.4-0.3,0.8-0.4,1.1c-0.1,0.2-0.1,0.4-0.2,0.6c0,0.1,0,0.2,0.1,0.2
				c0.1,0.1,0.3,0.1,0.4,0.1c0.2,0,0.5,0.1,0.8,0.1c0.7,0,1.4-0.1,2-0.3c0.6-0.2,1.2-0.5,1.7-0.8c0.5-0.3,0.9-0.7,1.2-1.2
				c0.3-0.4,0.4-0.9,0.4-1.4c0-0.7-0.3-1.1-0.8-1.4c0,0-0.1,0-0.2,0c-0.8,0.3-1.7,0.5-2.7,0.5c-0.1,0-0.2,0-0.3,0
				C119,100.1,118.9,100.1,118.8,100L118.8,100z M124.7,96.4c0,0.6-0.2,1.2-0.5,1.7c-0.3,0.4-0.7,0.8-1.2,1.1
				c-0.1,0.1-0.1,0.2,0,0.3c0.3,0.2,0.5,0.5,0.7,0.8c0.2,0.4,0.3,0.8,0.3,1.3c0,0.6-0.2,1.1-0.5,1.7c-0.3,0.5-0.8,1-1.3,1.4
				c-0.6,0.4-1.2,0.8-1.9,1c-0.7,0.3-1.4,0.4-2.2,0.4c-0.8,0-1.5-0.2-2.1-0.5c-0.6-0.3-1-0.7-1.4-1.2c0,0,0-0.1,0-0.2
				c0.1-0.3,0.2-0.7,0.4-1.1c0.2-0.5,0.4-0.9,0.6-1.5c0.2-0.5,0.4-1,0.6-1.5c0.2-0.5,0.4-1,0.6-1.4c0.4-0.9,0.7-1.6,1.1-2.2
				c0.2-0.4,0.4-0.7,0.6-0.9c0.1-0.1-0.1-0.3-0.2-0.3c-0.4,0.1-0.7,0.3-1,0.4c-0.5,0.2-0.8,0.4-1,0.6c-0.1-0.1-0.2-0.2-0.3-0.3
				c-0.1-0.1-0.2-0.3-0.3-0.4c-0.1-0.2-0.2-0.3-0.2-0.5c0-0.1-0.1-0.2-0.1-0.3c0-0.1,0-0.1,0.1-0.2c0.3-0.2,0.6-0.3,1-0.5
				c0.4-0.2,0.9-0.3,1.4-0.4c0.5-0.1,1-0.2,1.6-0.3c0.5-0.1,1-0.1,1.5-0.1c1.2,0,2.2,0.3,2.9,0.7C124.3,94.8,124.7,95.5,124.7,96.4z
				"/>
			<path class="st7" d="M130.9,102.5c-0.2,0.8-0.5,1.4-0.7,2.1c-0.2,0.6-0.5,1.2-0.8,1.7c-0.3,0.5-0.6,1-0.9,1.4
				c-0.3,0.4-0.7,0.9-1,1.2c-0.5,0.5-1,0.9-1.5,1.1c-0.5,0.3-1,0.4-1.5,0.4c-0.3,0-0.5,0-0.8-0.1c-0.3-0.1-0.5-0.1-0.7-0.2
				c-0.2-0.1-0.4-0.2-0.6-0.3c-0.2-0.1-0.4-0.4-0.4-0.4c0,0,0,0,0,0l0.2-0.3c0,0,0,0,0,0c0,0,0.2,0.2,0.3,0.3
				c0.1,0.1,0.2,0.1,0.3,0.2c0.1,0,0.1,0,0.2,0c0.1,0,0.2,0,0.3,0c0.6,0,1.2-0.2,1.7-0.5c0.6-0.3,1.1-0.8,1.6-1.5
				c0.5-0.6,1-1.4,1.4-2.3c0.4-0.9,1.1-3,1.1-3c0,0,0,0,0,0c0,0-0.3,0.4-0.5,0.7c-0.2,0.3-0.4,0.6-0.7,0.9c-0.2,0.3-0.5,0.6-0.7,0.8
				c-0.2,0.2-0.3,0.3-0.5,0.4c-0.1,0.1-0.3,0.1-0.5,0.1c-0.1,0-0.2,0-0.3-0.1c-0.2-0.1-0.4-0.1-0.5-0.2c-0.2-0.1-0.3-0.2-0.4-0.4
				c-0.2-0.2-0.3-0.4-0.2-0.7c0-0.2,0-0.4,0-0.5c0-0.2,0.1-0.4,0.1-0.6c0.1-0.4,0.2-0.8,0.4-1.3c0.2-0.5,0.4-1,0.6-1.5
				c0.2-0.5,0.5-0.9,0.8-1.3c0.3-0.4,0.6-0.7,0.9-1c0,0,0,0,0,0c0.1,0,0.2,0,0.3,0c0.1,0,0.3,0,0.4,0.1c0.1,0,0.3,0.1,0.4,0.1
				c0.1,0.1,0.3,0.2,0.3,0.2c0,0,0,0,0,0c0,0-0.4,0.4-0.7,1c-0.4,0.6-1.3,2.5-1.3,2.5c0,0,0,0,0,0c0,0-0.1,0.3-0.2,0.5
				c-0.1,0.2-0.1,0.4-0.2,0.7c-0.1,0.2-0.1,0.5-0.2,0.7c-0.1,0.2-0.1,0.3-0.1,0.4c0,0.1,0,0.2,0,0.3c0,0,0.1,0.1,0.1,0.1
				c0,0,0,0,0,0c0,0,0.4-0.2,0.7-0.5c0.3-0.3,1-1.3,1-1.3c0,0,0,0,0,0c0,0,0.5-0.7,0.7-1.1c0.2-0.4,0.4-0.7,0.6-1.1
				c0.2-0.4,0.4-0.8,0.6-1.1c0.2-0.4,0.4-0.8,0.7-1.2c0,0,0,0,0,0c0.1,0,0.3,0,0.4,0c0.2,0,0.3,0.1,0.4,0.1c0.1,0,0.3,0.1,0.4,0.2
				c0.1,0.1,0.2,0.2,0.2,0.2c0,0,0,0,0,0c0,0-0.6,1.3-0.9,2C131.3,101.2,131.1,101.8,130.9,102.5z"/>
			<path class="st7" d="M140,100.1C140,100,140,100,140,100.1c0.6-1,1.3-1.9,1.9-2.7c0.6-0.8,1.2-1.5,1.8-2.1c0.6-0.6,1.1-1,1.6-1.3
				c0.5-0.3,0.9-0.5,1.2-0.5c0.1,0,0.3,0.1,0.4,0.2c0.2,0.1,0.3,0.2,0.4,0.4c0.1,0.2,0.3,0.3,0.3,0.5c0.1,0.2,0.1,0.3,0.1,0.5
				c0,0,0,0.1-0.1,0.1c-0.6,0.2-1.2,0.5-1.8,0.8c-0.6,0.3-1.2,0.7-1.8,1.2c-0.6,0.4-1.1,0.9-1.6,1.5c-0.5,0.5-1,1.1-1.4,1.7
				c0,0,0,0.1,0,0.1c0.2,0.4,0.4,0.9,0.6,1.3c0.2,0.5,0.5,0.9,0.8,1.4c0.3,0.5,0.6,0.9,0.9,1.2c0.3,0.4,1,0.9,1,0.9c0,0,0,0,0,0
				c0,0-0.1,0.2-0.3,0.3c-0.1,0.1-0.3,0.2-0.4,0.3c-0.1,0.1-0.3,0.2-0.5,0.2c-0.2,0.1-0.3,0.1-0.4,0.1c-0.3,0-0.5-0.1-0.7-0.4
				c-0.2-0.3-0.5-0.6-0.7-1.1c-0.2-0.5-0.5-1.1-0.7-1.9C140.6,101.9,140.3,101.1,140,100.1L140,100.1z M137.7,106.1
				c0.2-0.9,0.4-1.9,0.7-2.9c0.3-1,1.3-3.4,1.3-3.4c0,0,0,0,0,0c0,0,0.5-1.1,0.7-1.6c0.2-0.5,0.4-1,0.6-1.4c0.2-0.4,0.4-0.8,0.5-1.1
				c0.1-0.3,0.3-0.5,0.4-0.6c0,0,0-0.1,0-0.1c-0.3-0.4-0.5-0.7-0.9-1c-0.3-0.3-0.6-0.4-1-0.5c-0.1,0-0.2,0-0.2,0.1
				c-0.1,0.6-0.2,1.1-0.3,1.5c-0.1,0.4-0.2,0.9-0.3,1.2c-0.1,0.4-0.2,0.7-0.4,1.1c-0.1,0.4-0.3,0.9-0.5,1.4
				c-0.3,0.9-0.6,1.6-0.9,2.3c-0.3,0.7-0.5,1.2-0.7,1.7c-0.2,0.5-0.3,0.9-0.5,1.2c-0.1,0.3-0.2,0.5-0.3,0.7c0,0,0,0.1,0,0.1
				c0.2,0.3,0.4,0.6,0.7,0.8c0.2,0.2,0.5,0.4,0.9,0.5C137.6,106.2,137.7,106.1,137.7,106.1z"/>
			<path class="st7" d="M148.3,97.4C148.3,97.4,148.3,97.4,148.3,97.4c0.3,0.1,0.6,0.2,0.8,0.5c0.2,0.3,0.4,0.6,0.5,0.9
				c0,0,0,0,0,0.1c-0.1,0.3-0.3,0.6-0.5,1c-0.2,0.4-0.5,0.8-0.7,1.2c-0.2,0.4-0.5,0.8-0.6,1.2c-0.2,0.4-0.3,0.9-0.3,0.9c0,0,0,0,0,0
				c0,0,0.3-0.4,0.5-0.6c0.2-0.2,0.4-0.5,0.6-0.7c0.2-0.2,0.4-0.4,0.5-0.6c0.2-0.2,0.4-0.4,0.4-0.4c0,0,0,0,0,0c0,0,0.4-0.4,0.7-0.7
				c0.3-0.3,0.6-0.5,0.8-0.8c0.3-0.2,0.6-0.4,0.9-0.6c0.3-0.2,0.6-0.3,0.8-0.3c0.3,0,0.5,0.1,0.7,0.3c0.2,0.2,0.4,0.6,0.4,0.6
				c0,0,0,0,0,0c0,0,0,0-0.1,0.1c-0.1,0-0.2,0.1-0.3,0.3c-0.1,0.2-0.3,0.4-0.5,0.8c-0.2,0.3-0.4,0.7-0.5,1.1
				c-0.2,0.4-0.3,0.8-0.4,1.2c-0.1,0.4-0.2,0.8-0.2,1.1c0,0.3,0,0.4,0.1,0.5c0.1,0.1,0.2,0.1,0.3,0.1c0.1,0,0.2,0,0.4-0.1
				c0.1-0.1,0.2-0.1,0.3-0.1c0,0,0.1,0.1,0.1,0.1c0,0.1,0,0.2,0,0.2c0,0,0,0,0,0c0,0-0.2,0.1-0.3,0.2c-0.1,0.1-0.2,0.1-0.4,0.2
				c-0.1,0.1-0.2,0.1-0.4,0.2c-0.1,0-0.2,0.1-0.3,0.1c-0.3,0-0.5,0-0.7-0.1c-0.2-0.1-0.3-0.2-0.4-0.3c-0.1-0.1-0.2-0.3-0.2-0.5
				c0-0.2-0.1-0.4-0.1-0.6c0-0.1,0-0.3,0-0.4c0-0.2,0.1-0.3,0.1-0.6c0.1-0.2,0.2-0.5,0.3-0.8c0.1-0.3,0.4-1.1,0.4-1.1c0,0,0,0,0,0
				c0,0-0.2,0.1-0.4,0.2c-0.3,0.1-0.8,0.7-0.8,0.7c0,0,0,0,0,0c0,0-0.9,0.9-1.3,1.4c-0.4,0.5-1.2,1.5-1.2,1.5c0,0,0,0,0,0
				c0,0-0.4,0.6-0.6,0.8c-0.2,0.2-0.3,0.3-0.4,0.4c0,0-0.1,0-0.1,0c-0.2-0.1-0.3-0.3-0.4-0.5c-0.1-0.2-0.2-0.4-0.2-0.7c0,0,0,0,0,0
				c0-0.2,0-0.4,0.1-0.7c0.1-0.3,0.1-0.6,0.2-1c0.1-0.4,0.2-0.8,0.4-1.2c0.1-0.4,0.5-1.2,0.5-1.2c0,0,0,0,0,0c0,0,0.8-1.6,1.1-2.1
				C148,97.8,148.2,97.5,148.3,97.4z"/>
			<path class="st7" d="M156.5,100.6c-0.2,0.2-0.3,0.5-0.5,0.8c-0.2,0.3-0.3,0.6-0.4,0.8c-0.1,0.3-0.2,0.6-0.3,0.8
				c-0.1,0.3-0.1,0.5-0.1,0.7c0,0.2,0,0.5,0.1,0.7c0.1,0.2,0.2,0.3,0.3,0.4c0,0,0,0,0.1,0c0.5-0.1,0.9-0.3,1.3-0.6
				c0.4-0.3,0.7-0.6,1-1.1c0.3-0.4,0.5-0.9,0.7-1.4c0.2-0.5,0.2-1.1,0.2-1.7c0-0.3,0-0.5,0-0.6c0-0.1-0.1-0.2-0.1-0.3
				c0,0-0.1-0.1-0.1,0c-0.4,0.1-0.8,0.3-1.2,0.6C157.1,100,156.8,100.3,156.5,100.6L156.5,100.6z M155.8,105.5
				C155.8,105.5,155.7,105.5,155.8,105.5c-0.6-0.1-1.1-0.3-1.4-0.8c-0.4-0.5-0.5-1-0.5-1.7c0-0.4,0.1-0.8,0.2-1.3
				c0.1-0.4,0.3-0.9,0.5-1.3c0.2-0.4,0.5-0.8,0.8-1.2c0.3-0.4,0.6-0.7,1-1c0.6-0.4,1.1-0.6,1.6-0.6c0,0,0,0,0,0
				c0.3,0.2,0.6,0.5,1,1.1c0.1,0,0.1,0,0.1,0c0,0,0.1,0,0.1,0c0.5,0,0.8,0.5,0.8,1.5c0,0.7-0.1,1.3-0.3,1.9
				c-0.2,0.6-0.5,1.1-0.9,1.6c-0.4,0.5-0.8,0.9-1.4,1.2C156.9,105.1,156.4,105.4,155.8,105.5z"/>
			<path class="st7" d="M160.7,104.3c0-0.2,0-0.5,0.1-0.9c0-0.4,0.1-0.8,0.2-1.2c0.1-0.4,0.2-0.9,0.3-1.3c0.1-0.5,0.2-0.9,0.3-1.2
				c0.1-0.5,0.3-0.9,0.6-1.1c0.3-0.3,0.6-0.4,1.1-0.4c0.2,0,0.5,0,0.7,0.1c0.2,0.1,0.4,0.2,0.4,0.3c-0.3,0.2-0.5,0.6-0.7,0.9
				c-0.2,0.4-0.3,0.8-0.4,1.2c-0.1,0.4-0.2,0.8-0.2,1.3c0,0.3-0.1,0.6-0.1,0.9c0,0.1,0.1,0.1,0.2,0.1c0.3-0.3,0.5-0.7,0.8-0.9
				c0.3-0.4,0.6-0.7,0.8-0.9c0.3-0.3,0.5-0.6,0.7-0.8c0.1-0.2,0.2-0.4,0.3-0.7c0.1-0.2,0.1-0.4,0.2-0.7c0.1-0.2,0.2-0.5,0.4-0.7
				c0,0,0.1,0,0.3,0c0.1,0,0.2,0,0.3,0c0.1,0,0.2,0,0.3,0.1c0.1,0,0.2,0.1,0.3,0.1c0.1,0,0.1,0.1,0.1,0.2c-0.2,0.2-0.3,0.6-0.5,1
				c-0.1,0.5-0.3,1-0.4,1.5c-0.1,0.5-0.2,1.1-0.3,1.6c-0.1,0.5-0.2,1-0.3,1.4c0,0,0.1-0.1,0.3-0.2c0.1-0.1,0.3-0.3,0.5-0.5
				c0.2-0.2,0.4-0.5,0.6-0.7c0.2-0.3,0.4-0.5,0.5-0.8c0.2-0.3,0.4-0.6,0.5-0.8c0.1-0.3,0.2-0.5,0.3-0.8c0.1-0.3,0.2-0.6,0.3-1
				c0.1-0.4,0.2-0.8,0.3-1.3c0,0,0,0,0,0c0.1-0.1,0.2-0.1,0.4-0.2c0.2-0.1,0.4-0.1,0.6-0.1c0.2,0,0.3,0,0.3,0.1
				c-0.1,0.6-0.1,1.1-0.3,1.6c-0.1,0.5-0.3,0.9-0.6,1.3c-0.2,0.4-0.5,0.9-0.9,1.3c-0.4,0.4-0.8,0.9-1.2,1.4
				c-0.2,0.2-0.4,0.4-0.6,0.7c-0.2,0.2-0.5,0.5-0.7,0.7c-0.2,0.2-0.4,0.4-0.6,0.5c-0.2,0.1-0.3,0.2-0.4,0.2c-0.2,0-0.4-0.1-0.6-0.3
				c-0.2-0.2-0.2-0.4-0.2-0.7c0-0.3,0-0.6,0-0.8c0-0.2,0.1-0.5,0.1-0.7c0.1-0.2,0.1-0.4,0.1-0.6c0-0.2,0.1-0.3,0.1-0.4
				c0-0.1,0-0.2,0.1-0.3c0-0.1,0-0.2,0-0.2c-0.1,0-0.2,0.1-0.3,0.3c-0.1,0.1-0.3,0.3-0.4,0.4c-0.1,0.2-0.3,0.3-0.4,0.5
				c-0.1,0.2-0.3,0.3-0.4,0.4c-0.2,0.3-0.4,0.5-0.5,0.7c-0.1,0.2-0.3,0.4-0.4,0.6c-0.1,0.2-0.3,0.4-0.4,0.6
				c-0.1,0.2-0.2,0.4-0.4,0.6c0,0-0.1,0-0.1,0c-0.3-0.1-0.5-0.3-0.6-0.4C160.8,104.9,160.7,104.6,160.7,104.3z"/>
			<path class="st7" d="M170.2,104c0-0.5,0.1-1.1,0.3-1.9c0.2-0.8,0.5-1.8,0.9-2.9c0.6-1.7,1.2-3.2,1.8-4.4c0.5-1.1,1.1-2,1.6-2.6
				c0-0.1,0.1-0.1,0.2-0.1c0.1,0,0.2,0.1,0.3,0.1c0.2,0.1,0.4,0.2,0.5,0.3c0.2,0.1,0.3,0.2,0.5,0.3c0.1,0.1,0.3,0.2,0.3,0.2
				c0,0,0,0,0,0c0,0-1.5,2-2.1,3.1c-0.6,1.1-1.2,2.4-1.7,3.8c-0.4,1.2-0.8,2.3-1,3.3c-0.2,1-0.3,1.8-0.3,2.4l0,0.3c0,0,0,0.1,0,0.1
				c0,0,0,0,0,0c0,0-0.2-0.1-0.3-0.1c-0.1-0.1-0.3-0.2-0.3-0.2c-0.1-0.1-0.3-0.3-0.3-0.4c-0.1-0.1-0.2-0.2-0.2-0.5
				C170.2,104.6,170.2,104.3,170.2,104z"/>
			<path class="st7" d="M178.2,99.1C178.2,99.1,178.2,99.1,178.2,99.1c0,0-0.6,0.1-0.9,0.3c-0.3,0.2-0.6,0.4-0.8,0.7
				c-0.3,0.3-0.5,0.7-0.7,1.1c-0.2,0.4-0.5,1.3-0.5,1.3c0,0,0,0,0,0c0,0,1.5-0.9,2.1-1.5C177.8,100.4,178.2,99.1,178.2,99.1
				L178.2,99.1z M178.9,98.2c0.2,0.2,0.3,0.5,0.3,0.8c-0.1,0.5-0.2,0.9-0.3,1.2c-0.2,0.5-0.5,0.9-0.8,1.2c-0.3,0.3-0.8,0.7-1.3,0.9
				c-0.5,0.3-1.7,0.8-1.7,0.8c0,0,0,0,0,0c0,0,0,0.1,0,0.2c0,0.1,0,0.1,0,0.2c0,0.1,0,0.3,0,0.4c0,0.1,0.1,0.3,0.1,0.4
				c0.1,0.1,0.1,0.2,0.2,0.3c0.1,0.1,0.2,0.1,0.4,0.1c0.3,0,0.6-0.1,0.8-0.2c0.3-0.1,0.5-0.3,0.8-0.5c0.2-0.2,0.5-0.4,0.7-0.6
				c0.2-0.2,0.6-0.6,0.6-0.6c0,0,0,0,0,0l0.3,0.3c0,0,0,0,0,0c0,0-1,1.1-1.5,1.5c-0.4,0.3-0.9,0.6-1.3,0.7c-0.2,0.1-0.4,0.1-0.7,0
				c-0.6-0.1-1-0.4-1.3-0.7c-0.4-0.4-0.6-1-0.6-1.6c0-0.4,0.1-0.9,0.2-1.3c0.1-0.4,0.3-0.9,0.5-1.3c0.2-0.4,0.5-0.8,0.7-1.2
				c0.3-0.4,0.6-0.7,0.9-0.9c0.3-0.3,0.7-0.5,1-0.6c0.3-0.2,0.7-0.2,1-0.2C178.3,97.7,178.6,97.9,178.9,98.2z"/>
			<path class="st7" d="M181.3,105.1c0.2,0.1,0.3,0,0.5,0c0.3-0.1,0.6-0.4,0.9-0.7c0.4-0.4,0.7-0.9,1-1.5c0.3-0.6,0.5-1.2,0.7-1.8
				c0.2-0.7,0.3-1.3,0.3-1.9v-0.3c0,0,0-0.1,0-0.1c-0.2,0.1-0.5,0.3-0.8,0.5c-0.3,0.2-0.6,0.5-0.8,0.9c-0.3,0.3-0.5,0.7-0.8,1.1
				c-0.2,0.4-0.5,0.8-0.7,1.1c-0.2,0.4-0.4,0.8-0.5,1.1c-0.1,0.4-0.2,0.7-0.2,0.9C180.9,104.7,181,105,181.3,105.1L181.3,105.1z
				 M183.2,97.7C183.2,97.7,183.2,97.7,183.2,97.7c0.2,0,0.5,0.1,0.7,0.2c0.2,0.1,0.4,0.2,0.5,0.3c0.1,0,0.1,0,0.1-0.1
				c0-0.3-0.1-0.6-0.2-0.9c-0.1-0.4-0.2-0.7-0.3-1.1c-0.1-0.4-0.3-0.8-0.6-1.3c-0.2-0.5-0.5-1-0.9-1.6c0,0,0-0.1,0-0.1
				c0-0.1,0.1-0.2,0.2-0.3c0.1-0.1,0.2-0.2,0.4-0.3c0.1-0.1,0.3-0.2,0.4-0.3c0.1-0.1,0.3-0.1,0.4-0.1c0,0,0.1,0,0.1,0
				c0.3,0.3,0.5,0.7,0.8,1.2c0.3,0.5,0.5,1,0.7,1.6c0.2,0.6,0.3,1.1,0.5,1.7c0.1,0.6,0.2,1.2,0.2,1.7c0,0.5-0.1,1.1-0.2,1.7
				s-0.3,1.1-0.5,1.7c-0.2,0.5-0.5,1.1-0.7,1.5c-0.3,0.5-0.6,0.9-0.9,1.3c-0.3,0.4-0.7,0.7-1,0.9c-0.2,0.1-0.3,0.2-0.5,0.3
				c-0.3,0.2-0.7,0.2-1.1,0.1c-0.5-0.1-0.8-0.3-1.1-0.6c-0.4-0.4-0.6-0.9-0.6-1.6c0-0.4,0.1-0.7,0.2-1.1c0.1-0.4,0.3-0.8,0.4-1.2
				c0.2-0.4,0.4-0.8,0.6-1.2c0.2-0.4,0.5-0.7,0.8-1c0.3-0.3,0.6-0.6,0.8-0.8C182.6,97.9,182.9,97.8,183.2,97.7z"/>
			<path class="st7" d="M183.2,109.6C183.2,109.6,183.2,109.6,183.2,109.6c0,0,0-0.1,0.1-0.2c0-0.1,0.1-0.1,0.1-0.1c0,0,0,0,0,0
				c0,0,0.2,0.2,0.3,0.3c0.1,0.1,0.2,0.1,0.2,0.2c0.1,0,0.2,0.1,0.2,0.1c0.1,0,0.2,0,0.3,0c0.5,0,1-0.1,1.5-0.4
				c0.5-0.3,0.9-0.7,1.4-1.2c0.4-0.5,0.8-1.2,1.2-2c0.4-0.8,0.9-2.6,0.9-2.6c0,0,0,0,0,0c0,0-0.3,0.3-0.5,0.4
				c-0.2,0.1-0.4,0.3-0.6,0.4c-0.2,0.1-0.4,0.3-0.6,0.4c-0.1,0.1-0.2,0.1-0.3,0.2c-0.1,0.1-0.3,0.1-0.5,0c-0.1,0-0.2-0.1-0.2-0.1
				c-0.2-0.1-0.3-0.3-0.4-0.4c-0.1-0.2-0.2-0.4-0.3-0.6c-0.1-0.2-0.1-0.5-0.1-0.7c0-0.4,0.1-0.8,0.2-1.2c0.2-0.4,0.3-0.8,0.6-1.2
				c0.2-0.4,0.5-0.8,0.9-1.2c0.3-0.4,0.7-0.7,1.1-0.9c0.4-0.3,0.8-0.5,1.1-0.6c0.4-0.2,0.8-0.2,1.1-0.2c0.4,0,0.6,0.1,0.8,0.2
				c0.2,0.2,0.4,0.8,0.4,0.8c0,0,0,0,0,0c0,0-0.3-0.1-0.4-0.1c-0.2,0-0.5,0.1-0.9,0.3c-0.3,0.2-0.7,0.5-1,0.8
				c-0.3,0.3-0.7,0.7-1,1.1c-0.3,0.4-0.6,0.8-0.9,1.2c-0.3,0.4-0.5,0.8-0.6,1.2c-0.2,0.4-0.2,0.8-0.2,1.1c0,0.1,0,0.1,0,0.1
				c0,0,0,0,0,0c0.1,0,0.2-0.1,0.4-0.2c0.2-0.1,0.3-0.2,0.5-0.4c0.2-0.2,0.4-0.3,0.6-0.6c0.2-0.2,0.6-0.6,0.6-0.6c0,0,0,0,0,0
				c0,0,0.8-1,1.2-1.7c0.4-0.6,0.9-1.8,0.9-1.8c0,0,0,0,0,0c0,0,0.5,0.1,0.7,0.1c0.2,0.1,0.4,0.2,0.4,0.2c0,0,0,0,0,0
				c0,0-0.6,1.5-0.8,2c-0.2,0.5-0.6,1.5-0.6,1.5c0,0,0,0,0,0c0,0-0.5,1.4-0.8,2c-0.2,0.6-0.5,1.2-0.7,1.7c-0.3,0.5-0.5,1-0.8,1.5
				c-0.3,0.4-1,1.3-1,1.3c0,0,0,0,0,0c0,0-0.4,0.4-0.6,0.5c-0.2,0.1-0.5,0.3-0.7,0.4c-0.2,0.1-0.5,0.2-0.7,0.2
				c-0.2,0.1-0.4,0.1-0.6,0.1c-0.2,0-0.5,0-0.8-0.1c-0.3-0.1-0.5-0.1-0.7-0.2c-0.2-0.1-0.4-0.2-0.6-0.3
				C183.4,109.9,183.2,109.6,183.2,109.6z"/>
			<path class="st7" d="M197.6,99.1c-0.3,0-0.6,0.2-0.9,0.3c-0.3,0.2-0.6,0.4-0.8,0.7c-0.3,0.3-0.5,0.7-0.7,1.1
				c-0.2,0.4-0.4,0.9-0.5,1.3c0.8-0.4,1.5-0.9,2.1-1.5C197.3,100.5,197.6,99.8,197.6,99.1L197.6,99.1z M198.5,98.3
				c0.1,0.1,0.2,0.3,0.2,0.5c-0.1,0.5-0.2,1-0.3,1.4c-0.2,0.5-0.5,0.9-0.8,1.2c-0.3,0.3-0.8,0.7-1.3,0.9c-0.5,0.3-1.1,0.5-1.7,0.8
				c0,0.1,0,0.1,0,0.2c0,0.1,0,0.1,0,0.2c0,0.1,0,0.3,0,0.4c0,0.1,0.1,0.3,0.1,0.4c0.1,0.1,0.1,0.2,0.2,0.3c0.1,0.1,0.2,0.1,0.4,0.1
				c0.3,0,0.6-0.1,0.8-0.2c0.3-0.1,0.5-0.3,0.8-0.5c0.2-0.2,0.5-0.4,0.7-0.6c0.2-0.2,0.4-0.4,0.6-0.6c0.1,0.1,0.2,0.2,0.3,0.3
				c-0.5,0.6-1,1.1-1.5,1.5c-0.4,0.3-0.8,0.5-1.2,0.7c-0.2,0.1-0.5,0.1-0.7,0c-0.5-0.1-1-0.4-1.3-0.7c-0.4-0.4-0.6-1-0.6-1.6
				c0-0.4,0.1-0.9,0.2-1.3c0.1-0.4,0.3-0.9,0.5-1.3c0.2-0.4,0.5-0.8,0.7-1.2c0.3-0.4,0.6-0.7,0.9-0.9c0.3-0.3,0.7-0.5,1-0.6
				c0.3-0.2,0.7-0.2,1-0.2C197.8,97.7,198.2,98,198.5,98.3z"/>
		</g>
		<g>
			<path class="st10" d="M107.2,83.3c0,0-0.1,0.1-0.1,0.1c0,0-0.1,0-0.1,0c0,0-0.1,0-0.1,0s-0.1-0.1-0.2-0.1c-0.1,0-0.1-0.1-0.2-0.1
				c-0.1,0-0.2,0-0.3,0c-0.2,0-0.3,0-0.4,0.1c-0.1,0.1-0.1,0.2-0.1,0.3c0,0.1,0,0.2,0.1,0.2c0.1,0.1,0.1,0.1,0.2,0.1
				c0.1,0,0.2,0.1,0.3,0.1c0.1,0,0.2,0.1,0.3,0.1c0.1,0,0.2,0.1,0.3,0.1c0.1,0.1,0.2,0.1,0.3,0.2c0.1,0.1,0.2,0.2,0.2,0.3
				c0.1,0.1,0.1,0.3,0.1,0.4c0,0.2,0,0.4-0.1,0.5c-0.1,0.2-0.2,0.3-0.3,0.4c-0.1,0.1-0.3,0.2-0.5,0.3c-0.2,0.1-0.4,0.1-0.6,0.1
				c-0.1,0-0.3,0-0.4,0c-0.1,0-0.3-0.1-0.4-0.1c-0.1,0-0.2-0.1-0.4-0.2c-0.1-0.1-0.2-0.1-0.3-0.2l0.3-0.5c0,0,0.1-0.1,0.1-0.1
				c0,0,0.1,0,0.1,0c0.1,0,0.1,0,0.2,0.1c0.1,0,0.1,0.1,0.2,0.1c0.1,0,0.2,0.1,0.3,0.1c0.1,0,0.2,0.1,0.3,0.1c0.2,0,0.3,0,0.4-0.1
				c0.1-0.1,0.1-0.2,0.1-0.4c0-0.1,0-0.2-0.1-0.2c-0.1-0.1-0.1-0.1-0.2-0.2c-0.1,0-0.2-0.1-0.3-0.1c-0.1,0-0.2-0.1-0.3-0.1
				c-0.1,0-0.2-0.1-0.3-0.1c-0.1-0.1-0.2-0.1-0.3-0.2c-0.1-0.1-0.2-0.2-0.2-0.3c-0.1-0.1-0.1-0.3-0.1-0.5c0-0.2,0-0.3,0.1-0.5
				c0.1-0.1,0.2-0.3,0.3-0.4c0.1-0.1,0.3-0.2,0.5-0.3c0.2-0.1,0.4-0.1,0.6-0.1c0.1,0,0.3,0,0.4,0c0.1,0,0.2,0.1,0.3,0.1
				c0.1,0,0.2,0.1,0.3,0.1c0.1,0.1,0.2,0.1,0.3,0.2L107.2,83.3z"/>
			
				<rect x="109" y="84.1" transform="matrix(1.208667e-03 -1 1 1.208667e-03 26.4493 195.5844)" class="st10" width="4.2" height="1"/>
			<path class="st10" d="M115.6,82.5C115.6,82.5,115.6,82.5,115.6,82.5c0.1,0,0.1,0,0.1,0.1c0,0,0,0,0.1,0.1l2,2.5
				c0-0.1,0-0.2,0-0.2c0-0.1,0-0.1,0-0.2l0-2.2l0.9,0l0,4.2l-0.5,0c-0.1,0-0.1,0-0.2,0c-0.1,0-0.1-0.1-0.1-0.1l-2-2.5
				c0,0.1,0,0.1,0,0.2c0,0.1,0,0.1,0,0.2l0,2.2l-0.9,0l0-4.2l0.5,0C115.5,82.5,115.5,82.5,115.6,82.5z"/>
			<path class="st10" d="M124.7,85.6C124.7,85.6,124.8,85.6,124.7,85.6c0.1,0,0.1,0,0.1,0.1l0.4,0.4c-0.2,0.2-0.4,0.4-0.6,0.5
				c-0.3,0.1-0.6,0.2-0.9,0.2c-0.3,0-0.6-0.1-0.9-0.2c-0.3-0.1-0.5-0.3-0.6-0.4c-0.2-0.2-0.3-0.4-0.4-0.7c-0.1-0.3-0.1-0.5-0.1-0.9
				c0-0.3,0.1-0.6,0.2-0.9c0.1-0.3,0.3-0.5,0.4-0.7c0.2-0.2,0.4-0.3,0.7-0.4c0.3-0.1,0.6-0.2,0.9-0.2c0.2,0,0.3,0,0.4,0
				c0.1,0,0.3,0.1,0.4,0.1c0.1,0,0.2,0.1,0.3,0.2c0.1,0.1,0.2,0.1,0.3,0.2l-0.3,0.4c0,0,0,0.1-0.1,0.1c0,0-0.1,0-0.1,0
				c0,0-0.1,0-0.1,0c0,0-0.1,0-0.1-0.1c0,0-0.1,0-0.1-0.1c0,0-0.1,0-0.1-0.1c-0.1,0-0.1,0-0.2-0.1c-0.1,0-0.2,0-0.3,0
				c-0.2,0-0.3,0-0.5,0.1c-0.1,0.1-0.3,0.2-0.4,0.3c-0.1,0.1-0.2,0.3-0.2,0.4c-0.1,0.2-0.1,0.3-0.1,0.6c0,0.2,0,0.4,0.1,0.6
				c0.1,0.2,0.1,0.3,0.2,0.4c0.1,0.1,0.2,0.2,0.4,0.3c0.1,0.1,0.3,0.1,0.4,0.1c0.1,0,0.2,0,0.2,0c0.1,0,0.1,0,0.2,0
				c0.1,0,0.1,0,0.2-0.1c0.1,0,0.1-0.1,0.2-0.1C124.6,85.6,124.6,85.6,124.7,85.6C124.6,85.6,124.7,85.6,124.7,85.6z"/>
			<polygon class="st10" points="130.9,82.5 130.9,83.2 129.2,83.2 129.2,84.2 130.5,84.2 130.5,84.9 129.2,84.9 129.2,85.9 
				130.9,85.9 130.9,86.7 128.2,86.7 128.2,82.5 			"/>
			<path class="st10" d="M138.1,86l0.8,0l0-2.1c0-0.1,0-0.2,0-0.3l-0.5,0.4c0,0-0.1,0-0.1,0.1c0,0-0.1,0-0.1,0c-0.1,0-0.1,0-0.1,0
				c0,0-0.1,0-0.1-0.1l-0.3-0.4l1.3-1.1l0.7,0l0,3.5l0.7,0l0,0.6l-2.4,0L138.1,86z"/>
			<path class="st10" d="M145.4,83.8c0-0.1,0-0.2,0-0.3c0-0.1-0.1-0.1-0.1-0.2c-0.1-0.1-0.1-0.1-0.2-0.1c-0.1,0-0.2,0-0.2,0
				c-0.1,0-0.2,0-0.2,0c-0.1,0-0.1,0.1-0.2,0.1c0,0.1-0.1,0.1-0.1,0.2c0,0.1,0,0.2,0,0.2c0,0.4,0.2,0.6,0.6,0.6
				c0.2,0,0.3-0.1,0.4-0.2C145.3,84.1,145.4,84,145.4,83.8L145.4,83.8z M144.4,85c-0.1,0-0.3,0-0.4-0.1c-0.1,0-0.3-0.1-0.4-0.2
				c-0.1-0.1-0.2-0.2-0.3-0.4c-0.1-0.2-0.1-0.3-0.1-0.5c0-0.2,0-0.4,0.1-0.5c0.1-0.2,0.2-0.3,0.3-0.4c0.1-0.1,0.3-0.2,0.5-0.3
				c0.2-0.1,0.4-0.1,0.6-0.1c0.2,0,0.4,0,0.6,0.1c0.2,0.1,0.3,0.2,0.5,0.3c0.1,0.1,0.2,0.3,0.3,0.4c0.1,0.2,0.1,0.4,0.1,0.6
				c0,0.1,0,0.3,0,0.4c0,0.1-0.1,0.2-0.1,0.3c0,0.1-0.1,0.2-0.1,0.3c-0.1,0.1-0.1,0.2-0.2,0.3l-0.9,1.3c0,0.1-0.1,0.1-0.2,0.1
				c-0.1,0-0.2,0.1-0.3,0.1l-0.8,0l1.3-1.6c0,0,0.1-0.1,0.1-0.1c0,0,0-0.1,0.1-0.1c-0.1,0-0.2,0.1-0.3,0.1
				C144.7,85,144.6,85,144.4,85z"/>
			<path class="st10" d="M149.8,85.4c0,0.1,0,0.2,0,0.3c0,0.1,0.1,0.2,0.1,0.2c0.1,0.1,0.1,0.1,0.2,0.1c0.1,0,0.2,0,0.3,0
				c0.1,0,0.2,0,0.3-0.1c0.1,0,0.1-0.1,0.2-0.1c0.1-0.1,0.1-0.1,0.1-0.2c0-0.1,0-0.2,0-0.3c0-0.1,0-0.2,0-0.3c0-0.1-0.1-0.2-0.1-0.2
				c-0.1-0.1-0.1-0.1-0.2-0.1c-0.1,0-0.2,0-0.3,0c-0.1,0-0.2,0-0.2,0c-0.1,0-0.1,0.1-0.2,0.1c-0.1,0.1-0.1,0.1-0.1,0.2
				C149.8,85.2,149.8,85.3,149.8,85.4L149.8,85.4z M150.7,84c0.2,0,0.3,0,0.4,0.1c0.1,0,0.3,0.1,0.4,0.2c0.1,0.1,0.2,0.2,0.3,0.4
				c0.1,0.2,0.1,0.3,0.1,0.6c0,0.2,0,0.4-0.1,0.6c-0.1,0.2-0.2,0.3-0.3,0.5c-0.1,0.1-0.3,0.2-0.5,0.3c-0.2,0.1-0.4,0.1-0.6,0.1
				c-0.2,0-0.4,0-0.6-0.1c-0.2-0.1-0.3-0.2-0.5-0.3c-0.1-0.1-0.2-0.3-0.3-0.5c-0.1-0.2-0.1-0.4-0.1-0.6c0-0.2,0-0.4,0.1-0.6
				c0.1-0.2,0.2-0.4,0.4-0.6l0.9-1.3c0-0.1,0.1-0.1,0.2-0.1c0.1,0,0.2-0.1,0.3-0.1l0.8,0l-1.2,1.5c0,0,0,0-0.1,0.1c0,0,0,0-0.1,0.1
				c0.1,0,0.1,0,0.2-0.1C150.6,84,150.6,84,150.7,84z"/>
			<path class="st10" d="M156.9,84.6c0-0.3,0-0.5-0.1-0.7c0-0.2-0.1-0.3-0.1-0.4c-0.1-0.1-0.1-0.2-0.2-0.2c-0.1,0-0.2-0.1-0.2-0.1
				c-0.1,0-0.2,0-0.2,0.1c-0.1,0-0.1,0.1-0.2,0.2c-0.1,0.1-0.1,0.3-0.1,0.4c0,0.2-0.1,0.4-0.1,0.7c0,0.3,0,0.5,0.1,0.7
				c0,0.2,0.1,0.3,0.1,0.4c0.1,0.1,0.1,0.2,0.2,0.2c0.1,0,0.2,0.1,0.2,0.1c0.1,0,0.2,0,0.2-0.1c0.1,0,0.1-0.1,0.2-0.2
				c0.1-0.1,0.1-0.3,0.1-0.4C156.9,85.1,156.9,84.9,156.9,84.6L156.9,84.6z M157.9,84.6c0,0.4,0,0.7-0.1,1c-0.1,0.3-0.2,0.5-0.3,0.7
				c-0.1,0.2-0.3,0.3-0.5,0.4c-0.2,0.1-0.4,0.1-0.6,0.1c-0.2,0-0.4,0-0.6-0.1c-0.2-0.1-0.4-0.2-0.5-0.4c-0.1-0.2-0.2-0.4-0.3-0.7
				c-0.1-0.3-0.1-0.6-0.1-1c0-0.4,0-0.7,0.1-1c0.1-0.3,0.2-0.5,0.3-0.7c0.1-0.2,0.3-0.3,0.5-0.4c0.2-0.1,0.4-0.1,0.6-0.1
				c0.2,0,0.4,0,0.6,0.1c0.2,0.1,0.4,0.2,0.5,0.4c0.1,0.2,0.2,0.4,0.3,0.7C157.8,83.9,157.9,84.2,157.9,84.6z"/>
		</g>
	</g>
</g>
</svg>
